<?xml version="1.0" encoding="UTF-8"?>
<svg id="Layer_2" data-name="Layer 2" xmlns="http://www.w3.org/2000/svg" viewBox="0 0 457 457">
  <defs>
    <style>
      .cls-1 {
        fill: #30394f;
      }

      .cls-2 {
        fill: #a0aac2;
      }

      .cls-3 {
        fill: #fff;
      }
    </style>
  </defs>
  <g id="Layer_2-2" data-name="Layer 2">
    <circle class="cls-3" cx="228.5" cy="228.5" r="228.5"/>
    <circle class="cls-1" cx="228.5" cy="228.5" r="184"/>
    <g>
      <path class="cls-2" d="M195,186.51c0,4.17-1.34,7.55-4,10.16-2.67,2.61-6.09,3.91-10.25,3.91-4.56,0-8.63-1.27-12.21-3.81-3.58-2.54-5.37-6.35-5.37-11.43,0-2.08.55-4.75,1.66-8.01,1.1-3.25,2.51-6.45,4.2-9.57,1.69-3.12,3.58-5.79,5.66-8.01,2.08-2.21,4.17-3.32,6.25-3.32,1.17,0,2.12.39,2.83,1.17.71.78,1.07,1.69,1.07,2.73,0,1.56-.36,3.06-1.07,4.49-.72,1.43-1.5,2.83-2.34,4.2-.85,1.37-1.63,2.73-2.34,4.1-.72,1.37-1.01,2.7-.88,4,1.95-1.3,4.03-1.95,6.25-1.95,2.99,0,5.5,1.21,7.52,3.61,2.02,2.41,3.03,4.98,3.03,7.71Z"/>
      <path class="cls-2" d="M239.93,203.5c0,4.04-.07,8.08-.2,12.11-.13,4.04-.26,8.08-.39,12.11-.26,6.64-.39,13.25-.39,19.82s-.2,13.18-.59,19.82c-.13,2.22-.26,5.18-.39,8.89-.13,3.71-.62,7.36-1.46,10.94-.85,3.58-2.18,6.71-4,9.38-1.83,2.67-4.37,4-7.62,4s-5.66-1.07-7.62-3.22-3.49-4.88-4.59-8.2c-1.11-3.32-1.86-7.03-2.25-11.13s-.62-8.14-.68-12.11c-.07-3.97-.03-7.65.1-11.04.13-3.38.2-5.99.2-7.81,0-8.85.03-17.71.1-26.56.06-8.85.16-17.71.29-26.56-2.61-2.21-4.66-4.91-6.15-8.11-1.5-3.19-2.25-6.48-2.25-9.86,0-5.34,1.59-9.89,4.79-13.67,3.19-3.77,7.58-5.66,13.18-5.66,4.81,0,8.59,1.83,11.33,5.47,2.73,3.65,4.72,8.01,5.96,13.09,1.24,5.08,1.98,10.25,2.25,15.53.26,5.27.39,9.54.39,12.79Z"/>
      <path class="cls-2" d="M293.83,203.5c0,4.04-.07,8.08-.2,12.11-.13,4.04-.26,8.08-.39,12.11-.26,6.64-.39,13.25-.39,19.82s-.2,13.18-.59,19.82c-.13,2.22-.26,5.18-.39,8.89-.13,3.71-.62,7.36-1.46,10.94-.85,3.58-2.18,6.71-4,9.38-1.83,2.67-4.37,4-7.62,4s-5.66-1.07-7.62-3.22-3.49-4.88-4.59-8.2c-1.11-3.32-1.86-7.03-2.25-11.13s-.62-8.14-.68-12.11c-.07-3.97-.03-7.65.1-11.04.13-3.38.2-5.99.2-7.81,0-8.85.03-17.71.1-26.56.06-8.85.16-17.71.29-26.56-2.61-2.21-4.66-4.91-6.15-8.11-1.5-3.19-2.25-6.48-2.25-9.86,0-5.34,1.59-9.89,4.79-13.67,3.19-3.77,7.58-5.66,13.18-5.66,4.81,0,8.59,1.83,11.33,5.47,2.73,3.65,4.72,8.01,5.96,13.09,1.24,5.08,1.98,10.25,2.25,15.53.26,5.27.39,9.54.39,12.79Z"/>
    </g>
  </g>
</svg>