<?xml version="1.0" encoding="UTF-8"?>
<svg id="Layer_2" data-name="Layer 2" xmlns="http://www.w3.org/2000/svg" viewBox="0 0 457 457">
  <defs>
    <style>
      .cls-1 {
        fill: #fff;
      }

      .cls-2 {
        fill: #a44a69;
      }

      .cls-3 {
        fill: #dfc3cc;
      }
    </style>
  </defs>
  <g id="Layer_2-2" data-name="Layer 2">
    <circle class="cls-1" cx="228.5" cy="228.5" r="228.5"/>
    <circle class="cls-2" cx="228.5" cy="228.5" r="184"/>
    <g>
      <path class="cls-3" d="M137.68,186.31c0,4.17-1.34,7.55-4,10.16-2.67,2.61-6.09,3.91-10.25,3.91-4.56,0-8.63-1.27-12.21-3.81-3.58-2.54-5.37-6.35-5.37-11.43,0-2.08.55-4.75,1.66-8.01,1.1-3.25,2.51-6.45,4.2-9.57,1.69-3.12,3.58-5.79,5.66-8.01,2.08-2.21,4.17-3.32,6.25-3.32,1.17,0,2.11.39,2.83,1.17.71.78,1.07,1.69,1.07,2.73,0,1.56-.36,3.06-1.07,4.49-.72,1.43-1.5,2.83-2.34,4.2-.85,1.37-1.63,2.73-2.34,4.1-.72,1.37-1.01,2.7-.88,4,1.95-1.3,4.03-1.95,6.25-1.95,2.99,0,5.5,1.21,7.52,3.61,2.02,2.41,3.03,4.98,3.03,7.71Z"/>
      <path class="cls-3" d="M237.09,281.62c0,3.78-1.24,6.84-3.71,9.18-2.47,2.34-5.47,3.84-8.98,4.49-3.91.91-8.33,1.73-13.28,2.44-4.95.72-9.99,1.34-15.14,1.86-5.15.52-10.19.91-15.14,1.17-4.95.26-9.44.39-13.48.39-1.04,0-2.51-.03-4.39-.1-1.89-.07-3.84-.2-5.86-.39-2.02-.2-3.91-.49-5.66-.88s-3.09-.91-4-1.56c-.91-.78-1.73-1.86-2.44-3.22-.72-1.37-1.34-2.86-1.86-4.49-.52-1.63-.91-3.22-1.17-4.79-.26-1.56-.39-2.93-.39-4.1,0-1.82.23-3.48.68-4.98.45-1.5,1.33-2.9,2.64-4.2,1.56-1.69,3.19-3.35,4.88-4.98,1.69-1.63,3.32-3.22,4.88-4.79,1.82-1.95,4.23-4.52,7.23-7.71,2.99-3.19,6.22-6.77,9.67-10.74,3.45-3.97,6.9-8.14,10.35-12.5,3.45-4.36,6.61-8.62,9.47-12.79,2.86-4.17,5.18-8.07,6.93-11.72,1.76-3.64,2.64-6.77,2.64-9.37,0-2.47-.72-4.52-2.15-6.15-1.44-1.63-3.39-2.44-5.86-2.44-2.73,0-5.27.98-7.62,2.93s-4.69,4.07-7.03,6.35c-2.34,2.28-4.85,4.39-7.52,6.35-2.67,1.95-5.7,2.93-9.08,2.93-4.04,0-7.2-1.17-9.47-3.52-2.28-2.34-3.42-5.47-3.42-9.38,0-5.73,1.27-11.04,3.81-15.92s5.89-9.08,10.06-12.6c4.17-3.52,8.85-6.28,14.06-8.3,5.21-2.02,10.55-3.03,16.02-3.03s10.81.65,15.62,1.95c4.81,1.3,8.98,3.32,12.5,6.05s6.28,6.22,8.3,10.45c2.02,4.23,3.03,9.34,3.03,15.33,0,4.69-.81,9.6-2.44,14.75-1.63,5.15-3.78,10.32-6.45,15.53-2.67,5.21-5.73,10.38-9.18,15.53-3.45,5.15-7,10.06-10.64,14.75-3.65,4.69-7.29,9.05-10.94,13.09-3.65,4.04-6.97,7.55-9.96,10.55,6.38-.78,13.09-1.56,20.12-2.34s13.8-1.17,20.31-1.17c3.78,0,7.06,1.01,9.86,3.03,2.8,2.02,4.2,5.05,4.2,9.08Z"/>
      <path class="cls-3" d="M351.16,220.88c0,3.39-.91,6.05-2.73,8.01-1.83,1.95-4.3,3.26-7.42,3.91-6.12,1.43-12.11,2.41-17.97,2.93-.52,5.08-.98,10.13-1.37,15.14-.39,5.01-.78,9.99-1.17,14.94-.26,2.34-.52,5.57-.78,9.67-.26,4.1-.88,8.11-1.86,12.01s-2.41,7.32-4.3,10.25c-1.89,2.93-4.46,4.39-7.71,4.39s-5.57-1.37-7.32-4.1-3.1-5.92-4-9.57c-.91-3.64-1.5-7.32-1.76-11.04-.26-3.71-.39-6.61-.39-8.69,0-5.34.16-10.58.49-15.72.32-5.14.62-10.32.88-15.53-3.39.26-6.77.42-10.16.49-3.39.07-6.77.1-10.16.1-1.56,0-3.52-.03-5.86-.1-2.34-.06-4.69-.23-7.03-.49-2.34-.26-4.53-.75-6.54-1.46-2.02-.71-3.49-1.79-4.39-3.22-.65-.91-1.14-2.51-1.46-4.79-.33-2.28-.59-4.75-.78-7.42-.2-2.67-.29-5.24-.29-7.71v-14.26c0-2.86.13-5.79.39-8.79.13-2.86.29-6.28.49-10.25.2-3.97.85-7.78,1.95-11.43,1.1-3.64,2.73-6.77,4.88-9.38,2.15-2.6,5.24-3.91,9.28-3.91,2.47,0,4.46,1.17,5.96,3.52,1.49,2.34,2.67,5.08,3.52,8.2.85,3.12,1.4,6.28,1.66,9.47.26,3.19.39,5.63.39,7.32,0,3.91-.17,7.81-.49,11.72-.33,3.91-.81,7.75-1.46,11.52,3.78-.26,7.52-.49,11.23-.68s7.45-.42,11.23-.68c.13-1.3.36-3.94.68-7.91.32-3.97.75-8.2,1.27-12.7.52-4.49,1.04-8.69,1.56-12.6.52-3.91,1.04-6.45,1.56-7.62,1.04-2.47,2.67-4.52,4.88-6.15,2.21-1.63,4.75-2.44,7.62-2.44,3.38,0,5.79,1.04,7.23,3.12,1.43,2.08,2.41,4.56,2.93,7.42.65,3.65,1.04,7.42,1.17,11.33.13,3.91.2,7.75.2,11.52,0,5.6-.2,11.2-.59,16.8,2.86.26,5.66.59,8.4.98s5.53.91,8.4,1.56c3.12.65,5.53,2.08,7.23,4.3,1.69,2.22,2.54,4.88,2.54,8.01Z"/>
    </g>
  </g>
</svg>