<?xml version="1.0" encoding="UTF-8"?>
<svg id="Layer_2" data-name="Layer 2" xmlns="http://www.w3.org/2000/svg" viewBox="0 0 457 457">
  <defs>
    <style>
      .cls-1 {
        fill: #d56087;
      }

      .cls-2 {
        fill: #fff;
      }

      .cls-3 {
        fill: #efd4dd;
      }
    </style>
  </defs>
  <g id="Layer_2-2" data-name="Layer 2">
    <circle class="cls-2" cx="228.5" cy="228.5" r="228.5"/>
    <circle class="cls-1" cx="228.5" cy="228.5" r="184"/>
    <g>
      <path class="cls-3" d="M140.9,186.21c0,4.17-1.34,7.55-4,10.16-2.67,2.61-6.09,3.91-10.25,3.91-4.56,0-8.63-1.27-12.21-3.81-3.58-2.54-5.37-6.35-5.37-11.43,0-2.08.55-4.75,1.66-8.01,1.1-3.25,2.51-6.45,4.2-9.57,1.69-3.12,3.58-5.79,5.66-8.01,2.08-2.21,4.17-3.32,6.25-3.32,1.17,0,2.11.39,2.83,1.17.71.78,1.07,1.69,1.07,2.73,0,1.56-.36,3.06-1.07,4.49-.72,1.43-1.5,2.83-2.34,4.2-.85,1.37-1.63,2.73-2.34,4.1-.72,1.37-1.01,2.7-.88,4,1.95-1.3,4.03-1.95,6.25-1.95,2.99,0,5.5,1.21,7.52,3.61,2.02,2.41,3.03,4.98,3.03,7.71Z"/>
      <path class="cls-3" d="M241.68,253.79c0,7.68-1.21,14.52-3.61,20.51-2.41,5.99-5.79,11.07-10.16,15.23-4.36,4.17-9.57,7.36-15.63,9.57s-12.79,3.32-20.21,3.32c-4.04,0-8.5-.72-13.38-2.15s-9.47-3.52-13.77-6.25-7.88-6.02-10.74-9.86c-2.87-3.84-4.3-8.11-4.3-12.79,0-3.38,1.04-6.12,3.12-8.2,2.08-2.08,4.82-3.12,8.2-3.12s5.99.65,8.2,1.95c2.21,1.3,4.39,2.77,6.54,4.39,2.15,1.63,4.59,3.09,7.32,4.39,2.73,1.3,6.25,1.95,10.55,1.95,5.21,0,9.44-1.82,12.7-5.47,3.25-3.64,4.88-8.01,4.88-13.09,0-4.82-1.11-8.98-3.32-12.5-2.22-3.52-5.86-5.27-10.94-5.27-2.34,0-4.46.26-6.35.78-1.89.52-3.71,1.11-5.47,1.76-1.76.65-3.52,1.27-5.27,1.86s-3.55,1.01-5.37,1.27c-1.43.26-3.26.17-5.47-.29-2.22-.46-4.46-1.14-6.74-2.05-2.28-.91-4.33-1.98-6.15-3.22-1.83-1.24-3-2.57-3.52-4-.39-1.17-.75-3.71-1.07-7.62-.33-3.91-.59-8.14-.78-12.7-.2-4.56-.33-8.89-.39-12.99-.07-4.1-.1-6.93-.1-8.5v-5.08c0-2.34.1-4.79.29-7.32s.42-4.91.68-7.13c.26-2.21.71-3.71,1.37-4.49.78-1.17,2.7-2.28,5.76-3.32,3.06-1.04,6.64-2.02,10.74-2.93,4.1-.91,8.56-1.72,13.38-2.44,4.82-.71,9.41-1.33,13.77-1.86,4.36-.52,8.33-.91,11.91-1.17,3.58-.26,6.15-.39,7.71-.39,1.82,0,3.74.23,5.76.68,2.02.46,3.84,1.17,5.47,2.15,1.63.98,2.96,2.25,4,3.81,1.04,1.56,1.56,3.45,1.56,5.66,0,3.52-1.24,6.32-3.71,8.4-2.47,2.08-5.21,3.65-8.2,4.69-2.34.78-5.21,1.43-8.59,1.95-3.39.52-6.84,1.01-10.35,1.46-3.52.46-6.93.81-10.25,1.07-3.32.26-6.22.46-8.69.59l.39,28.32c2.6-.52,5.21-.94,7.81-1.27,2.6-.32,5.27-.49,8.01-.49,13.8,0,24.32,3.58,31.54,10.74,7.23,7.16,10.84,17.65,10.84,31.45Z"/>
      <path class="cls-3" d="M347.93,170.59c0,1.83-.49,4.36-1.46,7.62-.98,3.26-2.22,6.93-3.71,11.04-1.5,4.1-3.19,8.4-5.08,12.89-1.89,4.49-3.74,8.79-5.57,12.89-1.83,4.1-3.52,7.91-5.08,11.43s-2.8,6.25-3.71,8.2c-1.69,3.91-3.84,8.82-6.45,14.75-2.61,5.93-5.4,11.98-8.4,18.16-3,6.19-6.09,11.98-9.28,17.38-3.19,5.4-6.15,9.6-8.89,12.6s-5.99,4.49-9.77,4.49c-2.87,0-5.27-.91-7.23-2.73s-2.93-4.23-2.93-7.23c0-4.03.88-8.85,2.64-14.45,1.76-5.6,3.84-11.29,6.25-17.09,2.41-5.79,4.91-11.43,7.52-16.89,2.6-5.47,4.82-10.16,6.64-14.06,3.38-7.68,6.77-15.26,10.16-22.75,3.38-7.49,6.77-15.07,10.16-22.75-1.83-.26-3.74-.46-5.76-.59-2.02-.13-3.94-.2-5.76-.2-6.64,0-13.45.49-20.41,1.46-6.97.98-13.71,2.12-20.21,3.42-.65.13-1.63.2-2.93.2-3,0-5.44-.91-7.32-2.73-1.89-1.82-2.83-4.23-2.83-7.23s1.07-5.86,3.22-8.2,4.95-4.33,8.4-5.96c3.45-1.63,7.29-2.96,11.52-4,4.23-1.04,8.4-1.89,12.5-2.54,4.1-.65,7.91-1.07,11.43-1.27s6.31-.29,8.4-.29c2.21,0,5.44.17,9.67.49,4.23.33,8.59.85,13.09,1.56,4.49.72,8.62,1.69,12.4,2.93,3.78,1.24,6.31,2.83,7.62,4.79.65.78,1.01,1.53,1.07,2.25.06.72.1,1.53.1,2.44Z"/>
    </g>
  </g>
</svg>