<?xml version="1.0" encoding="UTF-8"?>
<svg id="Layer_2" data-name="Layer 2" xmlns="http://www.w3.org/2000/svg" viewBox="0 0 457 457">
  <defs>
    <style>
      .cls-1 {
        fill: #fff;
      }

      .cls-2 {
        fill: #b5bdd2;
      }

      .cls-3 {
        fill: #515c78;
      }
    </style>
  </defs>
  <g id="Layer_2-2" data-name="Layer 2">
    <circle class="cls-1" cx="228.5" cy="228.5" r="228.5"/>
    <circle class="cls-3" cx="228.5" cy="228.5" r="184"/>
    <g>
      <path class="cls-2" d="M140.12,184.95c0,4.17-1.34,7.55-4,10.16-2.67,2.61-6.09,3.91-10.25,3.91-4.56,0-8.63-1.27-12.21-3.81-3.58-2.54-5.37-6.35-5.37-11.43,0-2.08.55-4.75,1.66-8.01,1.1-3.25,2.51-6.45,4.2-9.57,1.69-3.12,3.58-5.79,5.66-8.01,2.08-2.21,4.17-3.32,6.25-3.32,1.17,0,2.11.39,2.83,1.17.71.78,1.07,1.69,1.07,2.73,0,1.56-.36,3.06-1.07,4.49-.72,1.43-1.5,2.83-2.34,4.2-.85,1.37-1.63,2.73-2.34,4.1-.72,1.37-1.01,2.7-.88,4,1.95-1.3,4.03-1.95,6.25-1.95,2.99,0,5.5,1.21,7.52,3.61,2.02,2.41,3.03,4.98,3.03,7.71Z"/>
      <path class="cls-2" d="M242.66,255.65c0,7.55-1.34,14.19-4,19.92-2.67,5.73-6.28,10.48-10.84,14.26-4.56,3.78-9.93,6.64-16.11,8.59-6.19,1.95-12.86,2.93-20.02,2.93-8.08,0-15.07-1.63-21-4.88-5.93-3.25-10.78-7.58-14.55-12.99-3.78-5.4-6.58-11.52-8.4-18.36-1.83-6.84-2.73-13.9-2.73-21.19,0-5.21.91-11.07,2.73-17.58,1.82-6.51,4.36-13.12,7.62-19.82,3.25-6.7,7.03-13.21,11.33-19.53,4.3-6.31,8.92-11.94,13.87-16.89s10.12-8.92,15.53-11.91c5.4-2.99,10.71-4.49,15.92-4.49,2.99,0,5.69.81,8.11,2.44,2.41,1.63,3.61,4.07,3.61,7.32,0,1.83-.78,3.78-2.34,5.86-1.56,2.08-3.42,4.14-5.57,6.15-2.15,2.02-4.36,3.97-6.64,5.86-2.28,1.89-4.07,3.61-5.37,5.18-3,3.39-5.76,7-8.3,10.84-2.54,3.84-4.72,7.85-6.54,12.01,1.95-.65,3.97-1.14,6.05-1.46,2.08-.32,4.17-.49,6.25-.49,6.64,0,12.53,1.37,17.68,4.1,5.14,2.73,9.47,6.35,12.99,10.84s6.18,9.64,8.01,15.43c1.82,5.8,2.73,11.75,2.73,17.87ZM215.32,255.84c0-6.9-2.12-12.21-6.35-15.92-4.23-3.71-9.67-5.57-16.31-5.57-2.22,0-4.75.33-7.62.98-2.87.65-5.34,1.63-7.42,2.93-.78.52-1.24,1.5-1.37,2.93-.13,1.43-.2,2.61-.2,3.52,0,3,.42,6.15,1.27,9.47.85,3.32,2.11,6.42,3.81,9.28,1.69,2.87,3.84,5.21,6.45,7.03,2.6,1.83,5.66,2.73,9.18,2.73,5.34,0,9.77-1.5,13.28-4.49,3.52-2.99,5.27-7.29,5.27-12.89Z"/>
      <path class="cls-2" d="M348.71,207.99c0,5.21-.88,11.2-2.64,17.97-1.76,6.77-4.17,13.67-7.23,20.7-3.06,7.03-6.64,13.93-10.74,20.7-4.1,6.77-8.59,12.83-13.48,18.16-4.88,5.34-9.96,9.64-15.23,12.89-5.27,3.25-10.58,4.88-15.92,4.88-2.87,0-5.44-.88-7.71-2.64-2.28-1.76-3.42-4.2-3.42-7.32,0-1.43.23-2.64.68-3.61.45-.98,1.07-1.98,1.86-3.03,2.86-3.64,5.79-7,8.79-10.06,2.99-3.06,5.96-6.12,8.89-9.18,2.93-3.06,5.76-6.28,8.5-9.67,2.73-3.38,5.21-7.29,7.42-11.72-4.3,1.17-8.72,1.76-13.28,1.76-6.51,0-12.4-1.01-17.68-3.03-5.27-2.02-9.74-4.91-13.38-8.69-3.65-3.77-6.45-8.3-8.4-13.57s-2.93-11.16-2.93-17.68c0-7.29,1.14-14,3.42-20.12,2.28-6.12,5.53-11.43,9.77-15.92,4.23-4.49,9.31-8.01,15.23-10.55,5.92-2.54,12.6-3.81,20.02-3.81,7.81,0,14.68,1.4,20.61,4.2,5.92,2.8,10.87,6.64,14.84,11.52,3.97,4.88,6.96,10.58,8.98,17.09,2.02,6.51,3.03,13.41,3.03,20.7ZM322.74,204.48c0-3.12-.42-6.18-1.27-9.18-.85-2.99-2.12-5.66-3.81-8.01-1.69-2.34-3.81-4.23-6.35-5.66-2.54-1.43-5.57-2.15-9.08-2.15-7.03,0-12.6,2.18-16.7,6.54-4.1,4.36-6.15,10.06-6.15,17.09s1.86,11.95,5.57,15.53c3.71,3.58,8.89,5.37,15.53,5.37s12.34-1.5,16.31-4.49c3.97-2.99,5.96-8.01,5.96-15.04Z"/>
    </g>
  </g>
</svg>