<?xml version="1.0" encoding="UTF-8"?>
<svg id="Layer_2" data-name="Layer 2" xmlns="http://www.w3.org/2000/svg" viewBox="0 0 457 457">
  <defs>
    <style>
      .cls-1 {
        fill: #fff;
      }

      .cls-2 {
        fill: #a44a69;
      }

      .cls-3 {
        fill: #dfc3cc;
      }
    </style>
  </defs>
  <g id="Layer_2-2" data-name="Layer 2">
    <circle class="cls-1" cx="228.5" cy="228.5" r="228.5"/>
    <circle class="cls-2" cx="228.5" cy="228.5" r="184"/>
    <g>
      <path class="cls-3" d="M162.78,181.92c0,4.17-1.34,7.55-4,10.16-2.67,2.61-6.09,3.91-10.25,3.91-4.56,0-8.63-1.27-12.21-3.81-3.58-2.54-5.37-6.35-5.37-11.43,0-2.08.55-4.75,1.66-8.01,1.1-3.25,2.51-6.45,4.2-9.57,1.69-3.12,3.58-5.79,5.66-8.01,2.08-2.21,4.17-3.32,6.25-3.32,1.17,0,2.11.39,2.83,1.17.71.78,1.07,1.69,1.07,2.73,0,1.56-.36,3.06-1.07,4.49-.72,1.43-1.5,2.83-2.34,4.2-.85,1.37-1.63,2.73-2.34,4.1-.72,1.37-1.01,2.7-.88,4,1.95-1.3,4.03-1.95,6.25-1.95,2.99,0,5.5,1.21,7.52,3.61,2.02,2.41,3.03,4.98,3.03,7.71Z"/>
      <path class="cls-3" d="M279.18,259.07c0,8.08-1.95,15.04-5.86,20.9s-8.89,10.68-14.94,14.45c-6.05,3.77-12.76,6.57-20.12,8.4-7.36,1.82-14.55,2.73-21.58,2.73-5.21,0-10.74-.75-16.6-2.25-5.86-1.5-11.26-3.78-16.21-6.84-4.95-3.06-9.05-6.93-12.3-11.62-3.26-4.69-4.88-10.16-4.88-16.41,0-5.08.85-9.86,2.54-14.36,1.69-4.49,4-8.66,6.93-12.5,2.93-3.84,6.31-7.26,10.16-10.25,3.84-2.99,7.91-5.6,12.21-7.81-3.26-1.04-6.42-2.54-9.47-4.49-3.06-1.95-5.76-4.23-8.11-6.84-2.34-2.6-4.23-5.53-5.66-8.79-1.43-3.25-2.15-6.7-2.15-10.35,0-7.16,1.92-13.38,5.76-18.65,3.84-5.27,8.69-9.6,14.55-12.99,5.86-3.38,12.21-5.89,19.04-7.52,6.84-1.63,13.25-2.44,19.24-2.44,4.56,0,9.18.52,13.87,1.56,4.69,1.04,8.95,2.73,12.79,5.08,3.84,2.34,7,5.4,9.47,9.18,2.47,3.78,3.71,8.33,3.71,13.67,0,8.33-2.38,15.66-7.13,21.97-4.75,6.32-10.64,11.43-17.68,15.33,4.56,1.17,8.82,3.06,12.79,5.66,3.97,2.61,7.42,5.7,10.35,9.28,2.93,3.58,5.21,7.59,6.84,12.01,1.63,4.43,2.44,9.05,2.44,13.87ZM247.15,260.24c0-3.12-.72-5.96-2.15-8.5-1.43-2.54-3.29-4.72-5.57-6.54-2.28-1.82-4.82-3.35-7.62-4.59-2.8-1.24-5.57-2.12-8.3-2.64-2.61,1.17-5.34,2.64-8.2,4.39-2.87,1.76-5.5,3.81-7.91,6.15-2.41,2.34-4.39,4.92-5.96,7.71-1.56,2.8-2.34,5.83-2.34,9.08,0,2.34.85,4.3,2.54,5.86,1.69,1.56,3.71,2.8,6.05,3.71,2.34.91,4.79,1.56,7.32,1.95s4.65.59,6.35.59c2.6,0,5.44-.29,8.5-.88,3.06-.59,5.86-1.56,8.4-2.93s4.65-3.16,6.35-5.37c1.69-2.21,2.54-4.88,2.54-8.01ZM241.88,185.43c0-1.56-.49-2.8-1.46-3.71-.98-.91-2.15-1.66-3.52-2.25s-2.8-.98-4.3-1.17c-1.5-.2-2.77-.29-3.81-.29-1.56,0-3.58.2-6.05.59-2.47.39-4.88,1.04-7.23,1.95-2.34.91-4.36,2.12-6.05,3.61-1.69,1.5-2.54,3.29-2.54,5.37,0,2.22.59,4.14,1.76,5.76,1.17,1.63,2.64,3.03,4.39,4.2s3.64,2.05,5.66,2.64c2.02.59,3.94.95,5.76,1.07,1.3-.78,2.93-1.79,4.88-3.03,1.95-1.24,3.87-2.67,5.76-4.3,1.89-1.63,3.48-3.32,4.79-5.08,1.3-1.76,1.95-3.55,1.95-5.37Z"/>
      <path class="cls-3" d="M326.06,198.91c0,4.04-.07,8.08-.2,12.11-.13,4.04-.26,8.08-.39,12.11-.26,6.64-.39,13.25-.39,19.82s-.2,13.18-.59,19.82c-.13,2.22-.26,5.18-.39,8.89-.13,3.71-.62,7.36-1.46,10.94-.85,3.58-2.18,6.71-4,9.38-1.83,2.67-4.36,4-7.62,4s-5.66-1.07-7.62-3.22-3.49-4.88-4.59-8.2c-1.11-3.32-1.86-7.03-2.25-11.13s-.62-8.14-.68-12.11c-.07-3.97-.03-7.65.1-11.04.13-3.38.2-5.99.2-7.81,0-8.85.03-17.71.1-26.56.06-8.85.16-17.71.29-26.56-2.61-2.21-4.66-4.91-6.15-8.11-1.5-3.19-2.25-6.48-2.25-9.86,0-5.34,1.59-9.89,4.79-13.67,3.19-3.77,7.58-5.66,13.18-5.66,4.82,0,8.59,1.83,11.33,5.47,2.73,3.65,4.72,8.01,5.96,13.09,1.24,5.08,1.98,10.25,2.25,15.53.26,5.27.39,9.54.39,12.79Z"/>
    </g>
  </g>
</svg>