<?xml version="1.0" encoding="UTF-8"?>
<svg id="Layer_2" data-name="Layer 2" xmlns="http://www.w3.org/2000/svg" viewBox="0 0 457 457">
  <defs>
    <style>
      .cls-1 {
        fill: #d56087;
      }

      .cls-2 {
        fill: #fff;
      }

      .cls-3 {
        fill: #efd4dd;
      }
    </style>
  </defs>
  <g id="Layer_2-2" data-name="Layer 2">
    <circle class="cls-2" cx="228.5" cy="228.5" r="228.5"/>
    <circle class="cls-1" cx="228.5" cy="228.5" r="184"/>
    <g>
      <path class="cls-3" d="M170,184.55c0,4.17-1.34,7.55-4,10.16-2.67,2.61-6.09,3.91-10.25,3.91-4.56,0-8.63-1.27-12.21-3.81-3.58-2.54-5.37-6.35-5.37-11.43,0-2.08.55-4.75,1.66-8.01,1.1-3.25,2.51-6.45,4.2-9.57,1.69-3.12,3.58-5.79,5.66-8.01,2.08-2.21,4.17-3.32,6.25-3.32,1.17,0,2.11.39,2.83,1.17.71.78,1.07,1.69,1.07,2.73,0,1.56-.36,3.06-1.07,4.49-.72,1.43-1.5,2.83-2.34,4.2-.85,1.37-1.63,2.73-2.34,4.1-.72,1.37-1.01,2.7-.88,4,1.95-1.3,4.03-1.95,6.25-1.95,2.99,0,5.5,1.21,7.52,3.61,2.02,2.41,3.03,4.98,3.03,7.71Z"/>
      <path class="cls-3" d="M272.93,207.6c0,5.21-.88,11.2-2.64,17.97-1.76,6.77-4.17,13.67-7.23,20.7-3.06,7.03-6.64,13.93-10.74,20.7-4.1,6.77-8.59,12.83-13.48,18.16-4.88,5.34-9.96,9.64-15.23,12.89-5.27,3.25-10.58,4.88-15.92,4.88-2.87,0-5.44-.88-7.71-2.64-2.28-1.76-3.42-4.2-3.42-7.32,0-1.43.23-2.64.68-3.61.46-.98,1.07-1.98,1.86-3.03,2.86-3.64,5.79-7,8.79-10.06,2.99-3.06,5.96-6.12,8.89-9.18,2.93-3.06,5.76-6.28,8.5-9.67,2.73-3.38,5.21-7.29,7.42-11.72-4.3,1.17-8.73,1.76-13.28,1.76-6.51,0-12.4-1.01-17.68-3.03-5.27-2.02-9.74-4.91-13.38-8.69-3.65-3.78-6.45-8.3-8.4-13.57s-2.93-11.16-2.93-17.68c0-7.29,1.14-14,3.42-20.12,2.28-6.12,5.53-11.43,9.77-15.92,4.23-4.49,9.31-8.01,15.23-10.55,5.92-2.54,12.6-3.81,20.02-3.81,7.81,0,14.68,1.4,20.61,4.2,5.92,2.8,10.87,6.64,14.84,11.52,3.97,4.88,6.96,10.58,8.98,17.09,2.02,6.51,3.03,13.41,3.03,20.7ZM246.96,204.09c0-3.12-.42-6.18-1.27-9.18-.85-2.99-2.12-5.66-3.81-8.01-1.69-2.34-3.81-4.23-6.35-5.66-2.54-1.43-5.57-2.15-9.08-2.15-7.03,0-12.6,2.18-16.7,6.54-4.1,4.36-6.15,10.06-6.15,17.09s1.86,11.95,5.57,15.53c3.71,3.58,8.89,5.37,15.53,5.37s12.33-1.5,16.31-4.49c3.97-2.99,5.96-8.01,5.96-15.04Z"/>
      <path class="cls-3" d="M318.83,201.55c0,4.04-.07,8.08-.2,12.11-.13,4.04-.26,8.08-.39,12.11-.26,6.64-.39,13.25-.39,19.82s-.2,13.18-.59,19.82c-.13,2.22-.26,5.18-.39,8.89-.13,3.71-.62,7.36-1.46,10.94-.85,3.58-2.18,6.71-4,9.38-1.83,2.67-4.37,4-7.62,4s-5.66-1.07-7.62-3.22-3.49-4.88-4.59-8.2c-1.11-3.32-1.86-7.03-2.25-11.13s-.62-8.14-.68-12.11c-.07-3.97-.03-7.65.1-11.04.13-3.38.2-5.99.2-7.81,0-8.85.03-17.71.1-26.56.06-8.85.16-17.71.29-26.56-2.61-2.21-4.66-4.91-6.15-8.11-1.5-3.19-2.25-6.48-2.25-9.86,0-5.34,1.59-9.89,4.79-13.67,3.19-3.77,7.58-5.66,13.18-5.66,4.81,0,8.59,1.83,11.33,5.47,2.73,3.65,4.72,8.01,5.96,13.09,1.24,5.08,1.98,10.25,2.25,15.53.26,5.27.39,9.54.39,12.79Z"/>
    </g>
  </g>
</svg>