<?xml version="1.0" encoding="UTF-8"?>
<svg id="Layer_2" data-name="Layer 2" xmlns="http://www.w3.org/2000/svg" viewBox="0 0 542.91 547.88">
  <defs>
    <style>
      .cls-1 {
        fill: #fff;
      }

      .cls-2 {
        fill: #91c540;
      }

      .cls-3 {
        fill: #0d547b;
      }
    </style>
  </defs>
  <g id="Layer_1-2" data-name="Layer 1">
    <path class="cls-2" d="M389.18,444.76c1.54,5.42,3.08,10.85,4.8,16.92-5.63-6.37-9.56-13.47-15.93-18.32l-1.1.73c2.69,4.75,5.38,9.5,8.02,14.16-5.48-5.48-11.03-11.03-16.32-16.32,1.82,4.61,3.8,9.6,5.77,14.59-.24.21-.48.43-.73.64-1.91-1.91-3.88-3.76-5.71-5.74-2.8-3.03-5.29-6.37-8.3-9.15-2.84-2.62-6.22-4.67-9.31-7.03-.76-.58-1.3-1.45-1.95-2.17-1.02-1.12-2-2.3-3.11-3.33-2.65-2.49-5.73-4.62-7.98-7.43-3.69-4.6-6.87-9.62-10.25-14.47-.19-.27-.3-.76-.53-.83-7.01-1.84-9.91-8.01-13.85-13.09-.4-.52-.85-1.01-1.7-2.03.17,1.43.27,2.28.38,3.16-.21-.1-.44-.13-.54-.27-2.36-3.24-4.53-6.65-7.13-9.68-1.34-1.56-3.63-2.28-5.15-3.73-1.22-1.16-2-2.82-2.88-4.31-1.28-2.17-2.35-4.47-3.73-6.58-4.13-6.33-8.34-12.62-12.58-18.89-3.27-4.84-5.77-10.26-11-13.6-1.59-1.01-2.43-3.15-3.85-4.51-2.32-2.24-4.51-5.14-7.34-6.21-6.79-2.57-8.49-7.52-8.65-13.98-.05-2.1-1.28-4.17-1.97-6.25.2-.25.4-.5.6-.76,1.69.64,3.38,1.28,4.98,1.89-.5-2.65-.99-5.22-1.61-8.46,1.24.95,2,1.53,2.82,2.16,3.07-2.41-1.48-3.11-1.05-5.2.73.04,1.51.08,2.48.13-.53-5.23.86-8.62,7.17-6.54-.64-2.73-1.25-5.3-1.88-7.99,1.82-.7,3.43-1.33,5.1-1.97-.05-2.17-3.77-5.11,1.65-6.14-.73-.53-1.22-.89-1.92-1.4.67-.93,1.35-1.88,2.07-2.87,1,.46,1.88.86,2.48,1.14.05-1.77.1-3.5.14-5.1,3,.9,5.61,1.68,8.23,2.47.09-.21.19-.41.28-.62-1.73-.86-3.46-1.71-6.11-3.03,1.81-.24,2.65-.35,3.27-.44.02-.69-.12-1.85.09-1.92,2.35-.74,4.12-3.28,7.17-1.94,2.92,1.28,6.05,2.08,9.43,2.51-2.41-1.29-4.81-2.58-7.22-3.87.07-.19.14-.38.2-.58.96-.09,1.91-.17,3.57-.32-2.26-2.59-4.13-4.91-6.19-7.06-1.83-1.92-4.89-2.5-4.75-6.43.05-1.45-3.39-3.15-5.38-4.52-5.19-3.58-11.13-6.39-15.43-10.8-2.22-2.28-4.33-4.91-6.86-7.01-1.71-1.42-3.66-2.54-5.5-3.8.15-.33.29-.66.44-.99,3.59.77,7.18,1.54,10.77,2.32.1-.24.2-.48.29-.73-2.43-1.31-4.86-2.63-7.48-4.05.45-.57.81-1.01,1.36-1.7-1.5-.83-2.92-1.61-4.7-2.6,1.19-.51,2.1-.9,3.34-1.43-1.28-.97-2.4-1.83-3.52-2.68.08-.23.15-.46.23-.7,1.52.23,3.04.46,4.61.69-.97-1.27-2.08-2.26-2.57-3.49-.48-1.21-.85-3-.28-3.92.51-.81,2.38-1.03,3.65-1.05,1.64-.02,3.28.42,5.12-.05l-7.88-7.88c3.14-.71,5.29-1.2,7.94-1.8-.84-.94-1.58-1.55-2.03-2.34-.55-.97-.86-2.07-1.27-3.12,1.07-.15,2.23-.61,3.21-.38,3.34.79,6.62,1.83,10.17,2.03-4.4-1.38-8.8-2.75-13.19-4.12,1.86-4.39,4.72-2.05,6.65-1.49-.5-1.85-1-3.71-1.7-6.31,5.17,2.26,9.36,4.51,13.95,5.37.15-.47.3-.93.45-1.4-3.56-1.31-7.13-2.61-10.69-3.92.02-.19.05-.39.07-.58,1.9.19,3.8.39,6.41.65-1.35-.72-2.1-1.12-2.85-1.52,3.23-.97,5.72-3.88,9.45-2.54,4.71,1.69,9.51,3.13,14.29,4.63,1.24.39,2.54.62,4.07.22-4.57-1.79-9.15-3.57-13.72-5.36.12-.41.23-.83.35-1.24,4.73.84,9.72,1.02,14.14,2.68,7.79,2.92,16.03,5.68,22.58,10.52,5.61,4.15,11.77,6.47,17.72,9.51,1.35.69,3.17.44,4.74.78.96.21,1.97.58,2.76,1.15,8.77,6.36,19.34,8.61,29.05,12.81,15.42,6.67,30.8,13.4,45.26,22.03,7.51,4.48,14.97,9.02,22.45,13.53-.22.41-.43.81-.65,1.22-2.37-1.15-4.75-2.3-7.12-3.45-.07.11-.14.22-.21.33,2.9,1.92,5.79,3.87,8.7,5.77,10.81,7.03,21.76,13.85,32.4,21.13,6.88,4.71,13.62,9.74,19.84,15.27,4.5,4,7.91,9.18,12.07,13.59,2.81,2.98,6.08,5.54,9.14,8.29-.31.22-.62.43-.93.65.54,1.2.78,2.69,1.65,3.56,6.75,6.73,13.68,13.28,20.42,20.01,1.85,1.85,3.27,4.14,4.88,6.23-.23.2-.47.41-.7.61-1.09-.83-2.19-1.66-3.5-2.66-.33,4.36,3.56,5.88,5,8.44-3.24-2.72-6.74-5.65-10.24-8.58-.21.21-.42.41-.62.62.85,1.18,1.82,2.29,2.53,3.56,1.24,2.23,2.1,4.7,3.54,6.79,1.5,2.18,3.49,4.03,5.53,6.33-.85.03-1.29.04-2.24.07,1.78,2.94,3.44,5.68,5.38,8.87-7.97-1.08-11.15-8.35-16.77-12.39,3.14,3.76,6.19,7.39,9.23,11.03l-.34.35-11.93-11.93c-.22.2-.44.39-.66.59,1.27,1.7,2.68,3.32,3.77,5.13,1,1.66,1.62,3.55,2.48,5.31.72,1.47,1.41,2.98,2.32,4.32,1.52,2.24,3.2,4.36,4.43,6.85-8.71-8.2-16.52-17.33-26.77-23.65-.29.27-.58.54-.87.81,5.37,6.16,10.74,12.32,16.28,18.67-9.15-7.35-18.08-14.52-27.01-21.69-.12.14-.24.28-.36.42,4.85,6.28,9.7,12.56,14.55,18.83l-.5.62c-3.26-2.38-6.53-4.74-9.77-7.15-6.26-4.64-12.33-9.56-18.82-13.85-3.01-1.99-6.83-2.73-10.25-4.13-1.01-.41-1.9-1.14-2.86-1.68-2.69-1.54-5.41-3.02-8.08-4.59-4.93-2.89-9.84-5.82-14.75-8.74-.99-.59-1.93-1.26-2.9-1.89-.22.19-.45.37-.67.56.38.8.57,1.79,1.16,2.38,2.9,2.93,5.2,6.31,8.89,8.64,4,2.53,7.53,6.02,10.7,9.59,3.96,4.46,6.09,9.86,6.55,15.98.18,2.44,1.59,4.78,2.44,7.16.53,1.46,1.07,2.92,1.6,4.38-.23.21-.46.42-.69.62-2.42-2.42-4.83-4.83-7.25-7.25l-.81.75c.74,1.33,1.64,2.6,2.18,4,.37.97,2.74,2.22-.05,3.37-.12.05.8,2.65,1.5,4.91-2.36-2.81-4.25-5.07-6.14-7.33-.15.08-.29.16-.44.24,1.46,3.28,2.93,6.55,4.39,9.83-.12.15-.23.29-.35.44-1.05-.79-2.11-1.58-2.98-2.23-.45,2.17-.93,4.46-1.55,7.43-1.6-1.19-2.34-1.74-3.09-2.3-.04.08-.12.16-.11.23,0,.11.09.2.11.31.03.24.04.49.05.69-1.61-1.05-3.09-2.02-4.72-3.08.2,3.54.37,6.5.56,9.89-2.5-.64-4.38-1.12-5.88-1.5-.65,1.9-1.25,3.64-1.86,5.38-1.54-1.24-3.07-2.49-4.62-3.72-.3-.24-.66-.42-1.34-.3,1.43,1.86,2.86,3.72,4.53,5.88-1.51.46-2.64.8-3.74,1.13-.71-1.1-1.28-2-1.79-2.78-.78,1.66-1.52,3.25-2.45,5.25-2.16-3.03-3.91-5.48-5.66-7.93-.42.26-.85.53-1.27.79,1.42,2.16,2.85,4.31,4.27,6.47-.06.11-.12.22-.18.33-1.24-.93-2.49-1.86-4.12-3.08.3.99.48,1.61.88,2.91-3.07-.95-6.13.1-8.44-2.63-2.45-2.89-5.1-5.61-7.71-8.36-.56-.59-1.33-.97-2.45-.97,2.28,2.88,4.55,5.75,6.83,8.63-.21.21-.43.42-.64.63-4.39-2.39-8.46-5.2-11.56-9.32-1.13-1.51-2.24-3.21-3.77-4.21-1.59-1.04-3.64-1.79-5.54-1.88-9.74-.5-17.45-5.96-26.37-10.5,1.89,3.02,3.42,5.52,5.01,7.99,3.96,6.19,8.29,12.18,11.79,18.61,1.94,3.56,2.41,7.89,3.75,11.8.53,1.55,1.84,2.82,2.41,4.36.46,1.22.34,2.65.01,4.14,3.73,7.01,8.72,13.44,10.72,21.6-.75-.53-1.49-1.05-2.4-1.69-.18.98-.34,1.89-.54,3.04-1.42-1.16-2.64-2.16-3.86-3.16,2.04,3.67.03,8.4,3.31,11.51.27.26-.85,1.67-.7,2.43.35,1.8,1.06,3.52,1.63,5.29-5.81.4-7.34-5.21-11.01-8.69,1.19,1.96,2.13,3.52,3.08,5.08-.11.1-.22.2-.33.3-1.63-1.9-3.27-3.8-4.9-5.7-.18.14-.36.27-.54.41Z"/>
    <path class="cls-2" d="M227.73,186.16c-1.93.35-3.86.7-6.94,1.26,1.39-1.88,2.2-2.99,2.94-3.98-.97-.31-2.27-.73-3.57-1.14q5.17-1.85,7.17-6.67c-1.67-.43-3.32-.86-5.07-1.31,2.98-.98,5.8-1.9,8.62-2.82-.06-.28-.12-.57-.18-.85-2.93-.64-5.86-1.28-8.95-1.95,1.83-.96,3.48-1.26,4.06-2.22,2.46-4.07,6.69-5.32,10.58-7.06,1.84-.83,3.93-1.12,5.9-1.66-.1-.53-.21-1.06-.31-1.59-1.17.18-2.42.15-3.48.58-4.33,1.75-8.57,3.71-12.9,5.44-1.71.68-3.57.96-6.01,1.59,1.89-4.34-.94-6.14-3.36-7.67-.67-.42-2.73,1.35-3.95,2.01-1.61-2.09-3.47-4.49-5.94-7.7,5.47-1.62,10.1-3.14,14.8-4.36,7.05-1.83,14.07-3.63,19.83-8.47,1.16-.97,2.59-1.61,3.82-2.52.37-.27.47-.91.19-1.77-.77.63-1.53,1.26-2.3,1.89-.28-.06-.56-.11-.85-.17.4-2.88.79-5.77,1.19-8.65.09.06.17.12.26.19-.1-.81-.23-1.61-.27-2.42-.01-.27.4-.68.31-.81-2.52-3.62,1.03-5.25,2.75-6.66,6.94-5.66,15.65-7.48,23.92-10.27,5.48-1.85,10.92-3.34,15.9-6.96,7.89-5.72,16.75-10.1,25.18-15.07,2.04-1.21,4.01-2.54,6.01-3.81.25.31.5.63.75.94-4.01,3.5-8.02,6.99-12.7,11.07,1.64-.41,2.43-.61,3.78-.95-.54.88-.94,1.27-1.03,1.73-.12.64-.02,1.32,0,1.99.59-.09,1.33.02,1.76-.29,3.54-2.53,7.01-5.13,10.51-7.71,3.61-2.66,7.22-5.34,10.85-7.98,1.22-.88,2.51-1.67,3.78-1.93,2.84-.56,5.67-1.12,8.51-1.68,0-.31,0-.62,0-.92,2.11,1.34,4.22,2.67,6.71,4.25-1.46,2.54-2.83,4.93-4.2,7.32-.21-.1-.42-.21-.64-.31.76-1.73,1.51-3.45,2.27-5.18-2.77,1.85-5.55,3.64-4.65,7.64,2.79,1.7,5.34-.05,6.98-1.8,4.21-4.5,10.25-5.62,15.03-8.93,2.6-1.8,4.98-3.96,7.29-6.15,5.2-4.94,10.26-10.03,15.44-14.99,1.86-1.78,3.91-3.36,5.88-5.02.2.19.4.38.59.56-.75,1.17-1.53,2.32-2.23,3.52-.38.66-1.09,1.67-.86,2.06,1.59,2.74-.67,4.13-1.99,5.62-3.75,4.22-7.71,8.24-11.57,12.36-2.58,2.76-5.19,5.51-7.68,8.36-4.15,4.75-8.28,9.51-12.25,14.41-.61.75-.81,2.87-.31,3.29,3.64,3.04,5.13,6.61,2.82,11.74,3.4-1.02,5.86-2.21,8.39-2.4,2.83-.21,4.63,2.47,4.03,5.44.69.18,1.38.44,2.09.53.75.09,1.52.02,3.06.02-6.33,6.65-12.26,12.88-18.41,19.34,1.48.47,2.35.75,3.13,1,.05.47.17.79.08.89-5.33,5.22-8.93,11.94-15.31,16.36-4.2,2.91-6.99,7.78-11.06,10.95-10.01,7.8-20.16,15.47-30.72,22.49-4.2,2.79-9.62,3.73-15.02,5.71-.6-4.04,3.6-5.03,4.23-8.48-2.38,1.43-4.38,2.7-6.44,3.87-3.42,1.94-6.31,4.54-10.15,6.1-6.55,2.65-12.42,6.94-18.83,10.03-5.26,2.53-10.87,4.33-16.34,6.42-.5.19-1.33.42-1.58.18-2.31-2.23-4.94-2.52-8.06-1.8,1-.73,1.96-1.55,3.02-2.18,3.51-2.07,3.09-6.1,4.71-9.09.47-.88,1.45-1.68,2.38-2.07,3.21-1.33,6.26-2.76,7.73-7.16-3.11,1.28-5.69,2.23-8.18,3.38-4.94,2.27-9.79,4.74-14.78,6.89-.83.36-2.89,2.31-3.29-.76-.58.31-1.15.62-2,1.07.08-1.66.14-3.02.22-4.79.54-.31,1.48-.83,2.46-1.39-1.87-1.44-2.31-2.51.09-3.83,1.25-.69,2.03-2.2,3.03-3.35-.22-.26-.43-.53-.65-.79ZM228,167.29c.17.21.35.42.52.63,6.7-3.89,13.39-7.78,20.85-12.11-1.68-.27-2.64-.75-3.11-.45-6.13,3.91-12.19,7.93-18.26,11.93Z"/>
    <path class="cls-2" d="M215.44,287.22c1.29,1.49,2.32,3.46,3.94,4.35,3.12,1.72,2.55,3.11.11,4.99,1.28.72,2.5,1.41,3.2,1.81.1,2.31.18,4.08.28,6.24-1.11-.59-1.86-.99-2.61-1.39-.52,3.99-3.2,1.45-4.27.99-6.49-2.8-12.81-6.01-19.23-8.96-3.24-1.49-6.6-2.74-10.64-4.4,1.92,5.73,5.88,7.59,10.06,9.32,1.21.5,2.49,1.55,3.1,2.69,2.11,3.9,1.56,9.14,6.13,11.83,1.39.82,2.63,1.88,3.93,2.83-4.06-.92-7.48-.55-10.49,2.35-.32.31-1.41.01-2.06-.23-7.11-2.72-14.42-5.05-21.26-8.35-8.33-4.02-15.97-9.6-24.5-13.05-5-2.03-8.75-5.41-13.21-7.93-2.68-1.52-5.28-3.17-8.38-5.04.82,4.49,6.29,5.77,5.5,11.03-7.03-2.58-14.09-3.8-19.55-7.44-13.74-9.13-26.95-19.11-39.97-29.26-5.29-4.12-8.92-10.47-14.39-14.25-8.31-5.75-12.99-14.49-19.92-21.29-.13-.12.04-.55.1-1.16,1.02-.32,2.15-.69,4.07-1.3-8.01-8.41-15.72-16.51-23.96-25.17,2,0,3.01.09,3.99-.03.93-.11,1.83-.45,2.72-.69-.79-3.87,1.55-7.36,5.24-7.08,3.3.25,6.49,1.79,10.92,3.12-3.01-6.68-1.07-11.32,3.67-15.28.65-.54.38-3.31-.4-4.28-5.16-6.37-10.53-12.58-15.93-18.75-3.24-3.7-6.63-7.28-9.99-10.88-5.02-5.36-10.17-10.6-15.05-16.08-1.72-1.94-4.66-3.75-2.59-7.31.3-.51-.62-1.82-1.12-2.68-.91-1.56-1.93-3.06-2.9-4.59.26-.24.52-.49.77-.73,2.56,2.17,5.23,4.22,7.65,6.54,6.74,6.45,13.32,13.08,20.09,19.5,3,2.85,6.1,5.66,9.48,8,6.22,4.31,14.06,5.77,19.55,11.62,2.13,2.27,5.44,4.54,9.08,2.34,1.17-5.2-2.45-7.53-6.04-9.94.98,2.25,1.97,4.49,2.95,6.74-.28.14-.55.27-.83.41-1.79-3.11-3.57-6.22-5.47-9.52,3.24-2.05,5.98-3.79,8.73-5.53,0,.4,0,.8,0,1.2,3.69.73,7.38,1.46,11.07,2.19,1.66.33,3.34,1.36,4.92,2.51,4.73,3.43,9.42,6.91,14.12,10.38,4.55,3.35,9.08,6.74,13.68,10.03.57.4,1.52.27,2.29.38.01-.86.15-1.75-.01-2.58-.12-.6-.64-1.11-1.34-2.25,1.75.44,2.78.7,4.91,1.23-6.08-5.3-11.3-9.85-16.52-14.4.32-.41.65-.81.97-1.22,2.61,1.66,5.17,3.39,7.82,4.96,10.97,6.47,22.5,12.17,32.76,19.61,6.49,4.7,13.56,6.64,20.69,9.05,10.75,3.63,22.1,6,31.12,13.37,2.24,1.83,6.87,3.96,3.58,8.66-.12.17.42.7.41,1.06-.05,1.05-.22,2.1-.35,3.15.11-.08.22-.16.33-.24.52,3.75,1.03,7.51,1.55,11.26-.37.07-.73.15-1.1.22-1-.82-1.99-1.64-2.99-2.47-.37,1.12-.24,1.95.24,2.31,1.6,1.17,3.46,2.01,4.97,3.27,7.5,6.3,16.63,8.64,25.8,11.02,6.12,1.59,12.14,3.56,19.26,5.67-3.22,4.17-5.63,7.29-7.73,10.01-1.59-.86-4.26-3.17-5.14-2.62-3.15,1.98-6.84,4.33-4.38,9.98-3.17-.82-5.6-1.19-7.82-2.07-5.64-2.25-11.16-4.8-16.79-7.07-1.39-.56-3.02-.52-4.53-.76-.13.69-.27,1.38-.4,2.07,2.57.7,5.28,1.08,7.68,2.16,5.06,2.27,10.57,3.89,13.77,9.19.75,1.24,2.9,1.64,5.28,2.89-4.03.88-7.84,1.71-11.65,2.54-.08.37-.16.74-.23,1.11,3.67,1.2,7.34,2.4,11.21,3.67-2.27.59-4.41,1.14-6.59,1.7q2.61,6.26,9.33,8.67c-1.69.54-3.38,1.08-4.64,1.49.95,1.29,2.01,2.73,3.82,5.18-4.01-.73-6.52-1.18-9.04-1.64-.28.34-.57.68-.85,1.03ZM192.17,246.12c-.61-.39-1.87.24-4.05.59,9.71,5.64,18.42,10.7,27.13,15.76.23-.27.45-.55.68-.82-7.91-5.2-15.79-10.43-23.76-15.52Z"/>
    <path class="cls-2" d="M420.2,386.93c-4.84,2.25-9.67-1.67-13.18,3.55,2.25,1.09,4.27,2.23,6.41,3.07,2.41.94,4.99,1.44,7.37,2.43,2.22.92,5.15,1.19,4.79,5.02-.09.94,1.93,2.09,2.92,3.08-2.06.18-4.24.38-7.86.7,1.95,1.68,3.02,2.61,4.7,4.06-2.06.44-3.03.65-4,.85-.08.34-.16.68-.25,1.03,5.24,1.01,10.48,2.02,15.72,3.04-.06.58-.11,1.16-.17,1.75-1.98.1-3.96.28-5.94.28-1.72,0-3.45-.39-5.15-.26-2.24.17-4.45.68-6.68,1.04,1.94,1.62,3.65,3.8,5.88,4.74,5.41,2.29,11.1,3.89,16.58,6.04,1.39.55,2.39,2.09,4.35,3.9-4.37.43-7.62.75-10.87,1.07-.02.38-.04.76-.05,1.15,3.65.71,7.31,1.41,10.63,2.05-1.19,2.63-2.17,4.82-2.96,6.56,1.99,1.94,3.52,3.43,5.06,4.93-.31.36-.61.73-.92,1.09-8.27-.81-16.54-1.62-24.81-2.43l-.19,1.51c6.15,1.19,12.31,2.38,18.46,3.57l-.12,1.22c-6.14-.15-12.28-.29-18.43-.44-.03.31-.06.63-.09.94,5.81.85,11.62,1.7,17.44,2.55-10.98,1.8-21.99-1.8-32.96.49,7.8,3.26,16.86.58,24.02,6.43-5.67-.27-11.34-.44-17-.82-17.92-1.19-35.86-2.11-53.73-3.8-13.02-1.23-25.92-3.77-38.92-5.24-16.7-1.89-33.44-3.71-50.21-4.81-20.22-1.33-39.86-5.44-59.41-10.42-12.11-3.09-24.31-5.98-36.61-8.13-17-2.97-34.25-4.57-51.17-7.87-11.5-2.24-22.57-6.66-33.97-9.57-5.19-1.32-6.62-5.11-6.65-9.05-.05-8.27-.12-16.75,1.61-24.76,2.5-11.62,6.6-22.89,9.97-34.32,1.93-6.56,3.82-8.58,10.83-8.83,8.45-.31,16.95.53,25.4.19,28.08-1.13,55.04,5.91,82.28,10.93,21.65,3.99,43.13,9.46,64.95,11.93,35.15,3.98,69.39,12.43,104.09,18.56,5.95,1.05,11.98,1.59,17.93,2.64,1.46.26,2.69,1.65,4.1,2.37,2.37,1.22,4.73,2.52,7.22,3.41,2.75.98,5.65,1.54,9.6,2.58Z"/>
    <g>
      <path class="cls-3" d="M457.01,364.74c-.33.21-1.2.54-1.72,1.17-.43.52-.44,1.39-.64,2.1,2.44.06.99,2.48,2.38,3.46-3.86,1.05-7.44,2.02-11.78,3.2,6.81,1.26,12.75,2.36,18.7,3.47l.29,1.01c-4.59,2.47-9.18,4.95-13.81,7.44,4.22-.26,8.5-.53,13.56-.84.33,2.24,1.59,5.03.7,6.21-1.18,1.57-4.03,1.89-6.53,2.9.76.25,1.27.41,2.28.74-1.64.57-2.9,1.03-4.17,1.45-1.21.4-2.44.74-3.67,1.11.02.3.04.61.06.91h12.96c.06.41.12.83.18,1.24-5.03,1.45-9.97,3.47-15.09,4.23-15.31,2.27-30.65,4.37-46.05,5.89-10.87,1.07-21.84,1.02-32.76,1.62-1.44.08-2.82,1.02-4.99,1.86,1.43.65,1.87.85,2.36,1.07-.25.13-.42.3-.59.3-35.02.24-70.05.79-105.07.54-14.55-.1-29.09-1.93-43.63-2.98-.03-.4-.06-.8-.09-1.2.72-.44,1.45-.88,2.73-1.67-3.39-.61-6.24-1.12-9.17-1.65.49-2.31,1.28-4.19,1.12-5.98-.08-.91-1.87-1.66-2.46-2.15v-16.31c3.84-1.42,2.08-5.83,2.75-8.97.72-3.41-.43-7.22-.87-11.93,2.04-1.16,5.3-3,8.56-4.84-.03-.29-.07-.57-.1-.86-2.08-.47-4.16-.93-6.44-1.44.73-1.96,1.48-4.06-1.84-4.97,4.4-.6,8.8-1.63,13.22-1.72,54.45-1.12,108.91-2.25,163.37-3.02,17.51-.25,35.04.5,52.56.96,2.32.06,4.61,1.17,7.21,2.49-2.32.48-4.62,1.1-6.96,1.41-4.08.53-8.21.77-12.28,1.37-1.07.16-2.02,1.17-3.02,1.79,1.08.52,2.15,1.08,3.26,1.54.39.16.87.09,2.09.18-1.94.55-3.14.89-4.35,1.23.01.23.03.45.04.68,6.4-.42,12.79-.83,20-1.3-2.66,1.93-4.73,3.43-6.81,4.94-.02.21-.05.43-.07.64,4.6-.37,9.2-.73,13.38-1.06-3.04,2.26-16.45,5.04-32.4,5.73-11.35.49-22.73.09-34.1.09,0,.32,0,.64,0,.96,11.35,0,22.71.39,34.04-.11,11.31-.5,22.58-1.91,33.68-2.9Z"/>
      <path class="cls-3" d="M384.74,340.82c-50.34-.14-100.64,2.11-150.98,2.15,0-.44-.01-.88-.02-1.32,50.33-.72,100.65-1.45,150.98-2.17,0,.45.01.9.02,1.34Z"/>
    </g>
    <g>
      <path class="cls-3" d="M331.05,170.48c-3.93,1.66-7.83,3.4-11.8,4.96-3.16,1.24-6.74,1.72-9.54,3.48-7.51,4.73-15.89,4.75-24.22,5.45-9.41.79-18.81,2.45-28.22,2.42-26.78-.07-53.56-1.31-80.34-1.09-18.47.15-36.91,2.34-55.39,2.9-17.58.53-35.24,1.68-52.73-1.64-.42-.08-.82-.23-1.26-.35,1.03-1.83,2.83-3.62,2.72-5.29-.09-1.39-2.42-2.63-3.89-4.06.24-.18.94-.73,1.71-1.32-.87-1.72-1.68-3.32-2.65-5.23,1.27-.34,2.16-.58,3.69-.99-.93-1.13-1.65-2-2.47-3,1.2-.39,2.72-.88,4.49-1.45-.76-1.21-1.42-2.21-2.03-3.25-.55-.95-1.03-1.94-1.63-3.07.86-.55,1.65-1.06,2.55-1.64-.68-1.08-1.34-2.12-2.12-3.36,1.74-.73,3.32-1.39,4.91-2.05-.06-.27-.11-.55-.17-.82-1-.2-2-.39-3.2-.63.45-3.09.9-6.19,1.39-9.55-.59-.27-1.58-.71-3.07-1.38,4.74-1.46,9.03-2.78,13.32-4.1.07-.22.15-.44.22-.67-3.28-1.13-6.55-2.26-9.87-3.41,2.45-.96,5.16-2.01,7.87-3.07-.09-.35-.19-.69-.28-1.04-3.68.51-7.37,1.02-11.05,1.53-.07-.35-.14-.71-.21-1.06,5.36-1.24,10.66-2.76,16.07-3.67,40.32-6.72,80.99-8.08,121.75-7.21,16.5.35,32.97,2.35,49.46,2.33,18.05-.02,36.09-1.51,54.14-2.36,1.43-.07,2.87-.13,4.38.42-4.22.7-8.45,1.39-12.67,2.09,0,.25,0,.5.01.76h18.03c.04.29.09.58.13.88-1.52.33-3.02.76-4.56.98-6.51.9-13.32.84-19.47,2.82-8.31,2.67-16.74,2.52-25.13,2.97-8.55.45-17.17-.2-25.75-.35-1.78-.03-3.55,0-5.41.58,2.99.46,6,1.4,8.98,1.31,16.16-.46,32.31-1.18,48.47-1.78,2.32-.09,4.65-.01,7.89-.01-1.89,1.04-3.12,1.72-5,2.75,5.45-.43,10.18-.81,14.91-1.19.05.33.11.66.16.99-4.09.77-8.18,1.54-12.27,2.31,0,.09-.01.18-.02.27,1.16.06,2.33.12,3.23.17.83,2.63,2.82,2.63,4.77,2.28,3.17-.57,6.31-1.36,9.46-2.02.96-.2,1.94-.28,3.74-.53-8.71,4.18-17.32,4.79-25.8,5.31-17.03,1.04-34.1,2.04-51.16,2.03-18.96,0-37.91-1.18-56.87-1.79-4.01-.13-8.04-.02-12.05.05-1.16.02-2.31.28-3.47.43,0,.27,0,.55,0,.82,1.46.16,2.92.4,4.39.47,11.58.5,23.17.96,34.76,1.44,10.81.45,21.66.53,32.44,1.46,20.06,1.72,39.82-.34,59.56-3.48,5.6-.89,11.24-1.52,16.87-2.19,1.02-.12,2.09.2,3.14.31.07.35.15.69.22,1.04-3.44,1.1-6.88,2.2-10.32,3.3.02.17.05.34.07.51,3.61-.49,7.23-.98,10.75-1.46-1.14,4.7-5.47,4.54-8.83,5.88-.1.34-.19.68-.29,1.01,2.32.91,4.57,2.33,6.96,2.61,3.01.35,6.13-.24,9.41.17-2.34.99-4.69,1.98-7.03,2.97l.1.67c1.77.28,3.54.57,5.31.85-.01.27-.03.55-.04.82-1.63.52-3.33.9-4.88,1.62-.75.35-1.22,1.31-1.82,2,.8.33,1.59.88,2.41.93,1.43.09,2.88-.13,4.41-.23-.62,7.24-6.88,8.2-12.21,10.16.23.46.46.92.7,1.38,3.69-.56,7.37-1.13,11.06-1.69.04.21.08.42.12.62ZM283.01,135.28c-.01-.26-.03-.52-.04-.78-6.07.31-12.14.62-18.2.94.01.27.03.53.04.8,6.07-.32,12.13-.64,18.2-.96Z"/>
      <path class="cls-3" d="M229.79,110.5h-83.66c7.53-2.15,79.81-2.55,83.66,0Z"/>
      <path class="cls-3" d="M142.89,111.38c-18.57,1.86-37.14,3.73-55.7,5.59-.05-.46-.1-.91-.14-1.37,18.55-2.05,37.09-4.09,55.64-6.14.07.64.14,1.28.21,1.92Z"/>
      <path class="cls-3" d="M96.95,192.48c-6.7-.37-13.39-.74-20.09-1.1.03-.57.06-1.15.09-1.72,6.7.49,13.4.99,20.1,1.48-.03.45-.07.9-.1,1.34Z"/>
    </g>
    <path class="cls-3" d="M368.61,339.7c4.92,2.75,9.85,5.49,15.36,8.57-8.48-.52-16.29-2.76-24.22-1.69l-.27,1.3c5.26,1.46,10.52,2.92,15.68,4.35h-23.08c4.55,1.97,9.47,4.11,14.4,6.24-.02.32-.04.64-.06.96-2.7,0-5.4.09-8.1-.02-4.12-.16-8.24-.76-12.34-.6-3.87.16-7.7,1.1-11.55,1.61-.95.13-1.94-.11-2.91-.15-1.52-.07-3.04-.21-4.55-.16-3.64.12-7.32.78-10.89.39-5.87-.64-11.66-1.95-17.48-2.98-.33-.06-.75-.33-.96-.21-6.26,3.65-12.68,1.35-19.05.54-.65-.08-1.31-.12-2.64-.23,1.13.89,1.81,1.42,2.5,1.96-.22.08-.41.22-.57.19-3.96-.62-7.9-1.5-11.89-1.8-2.05-.16-4.18.95-6.28,1-1.69.04-3.41-.58-5.08-1.01-2.44-.63-4.83-1.5-7.29-2.02-7.4-1.56-14.82-3.03-22.25-4.46-5.73-1.11-11.33-3.18-17.4-1.84-1.84.41-3.94-.51-5.91-.47-3.22.06-6.83-.45-9.59.8-6.62,2.99-11.32.68-16.01-3.77-1.52-1.45-3.85-2.04-5.82-3.03-.04-.32-.07-.64-.11-.96,1.65-.74,3.29-1.48,4.85-2.19-2.23-1.52-4.39-2.99-7.12-4.84,1.55-.21,2.5-.33,3.52-.47.46-3.88-3.25-1.15-4.42-2.94.54-.49,1.12-1.01,1.84-1.66-4.07-3.33-5.48-6.7.45-9.7-2.38-1.47-4.63-2.86-6.98-4.32.79-1.79,1.49-3.37,2.21-5-1.57-1.5-6.28-.95-3.17-5.5-.89.14-1.49.23-2.35.37-.19-1.13-.37-2.29-.57-3.49,1.04-.38,1.94-.72,2.56-.95-1.22-1.29-2.41-2.55-3.51-3.71,2.75-1.48,5.16-2.78,7.57-4.08-.08-.21-.16-.42-.24-.64-1.83.62-3.66,1.23-6.46,2.18,1.11-1.45,1.62-2.12,2-2.62-.47-.5-1.39-1.22-1.29-1.42,1.14-2.18.59-5.23,3.7-6.44,2.97-1.16,5.75-2.81,8.44-4.89-2.61.79-5.23,1.58-7.84,2.37-.09-.18-.18-.37-.26-.55.62-.74,1.23-1.47,2.29-2.75-3.43-.24-6.4-.55-9.37-.62-2.65-.06-5.22,1.69-7.9-1.19-.99-1.06-4.62.17-7.01.61-6.2,1.14-12.38,3.35-18.55,3.27-3.19-.04-6.53-.41-9.81-.11-2.21.21-4.39.79-6.58,1.21-.13-.34-.26-.67-.39-1.01,3.09-1.99,6.17-3.99,9.26-5.98-.1-.24-.2-.48-.31-.72-2.65.79-5.29,1.57-8.16,2.43-.08-.72-.14-1.28-.24-2.16-1.65.48-3.2.92-5.16,1.49.48-1.2.85-2.12,1.35-3.38-1.59.22-2.99.4-4.38.59-.11-.22-.22-.44-.33-.65,1.24-.91,2.47-1.83,3.75-2.77-1.58-.21-3.07-.12-4.29-.65-1.19-.52-2.73-1.52-2.97-2.57-.22-.93.95-2.41,1.84-3.32,1.14-1.17,2.61-2.02,3.58-3.65h-11.14c1.72-2.73,2.89-4.59,4.34-6.89-1.25-.07-2.22.02-3.09-.22-1.07-.29-2.07-.86-3.1-1.31.66-.86,1.14-2.01,2-2.54,2.92-1.8,5.97-3.38,8.63-5.75-4.08,2.14-8.17,4.28-12.24,6.41-1.79-4.42,1.89-4.79,3.64-5.76-1.66-.95-3.34-1.92-5.67-3.26,5.25-2.06,9.81-3.43,13.65-6.07-.22-.44-.45-.87-.67-1.31-3.44,1.6-6.89,3.19-10.33,4.79-.12-.15-.24-.31-.36-.46,1.48-1.21,2.96-2.41,5-4.07-1.46.45-2.27.7-3.09.95,1.59-2.97,1.3-6.78,4.89-8.48,4.53-2.14,8.94-4.52,13.38-6.84,1.16-.6,2.23-1.36,3.03-2.72-4.5,1.97-8.99,3.94-13.49,5.91-.21-.37-.42-.75-.63-1.12,3.94-2.75,7.59-6.15,11.89-8.11,7.57-3.44,15.34-7.32,23.41-8.52,6.9-1.03,12.89-3.75,19.26-5.8,1.45-.47,2.55-1.93,3.9-2.8.83-.53,1.8-.98,2.76-1.14,10.69-1.71,19.76-7.59,29.6-11.49,15.62-6.19,31.26-12.3,47.58-16.43,8.47-2.14,16.96-4.21,25.45-6.31.13.44.27.88.4,1.32-2.49.87-4.99,1.73-7.48,2.6.03.13.06.25.09.38,3.41-.69,6.83-1.36,10.23-2.08,12.61-2.67,25.18-5.6,37.85-7.97,8.2-1.54,16.51-2.74,24.83-3.23,6.01-.35,12.09.9,18.15,1.07,4.1.12,8.22-.38,12.33-.61-.07.37-.13.74-.2,1.11,1.23.47,2.46,1.35,3.68,1.35,9.53-.02,19.06-.28,28.59-.29,2.62,0,5.24.62,7.86.96-.02.31-.04.62-.07.93-1.36.18-2.72.37-4.36.59,2.84,3.31,6.67,1.64,9.5,2.44-4.21.37-8.76.77-13.31,1.17,0,.29,0,.59,0,.88,1.44.23,2.91.33,4.3.73,2.46.7,4.81,1.84,7.3,2.3,2.61.48,5.32.39,8.39.56-.58.62-.89.94-1.54,1.63,3.34.82,6.45,1.58,10.08,2.47-6.4,4.87-13.79,1.98-20.62,3.09,4.88.43,9.6.85,14.33,1.27v.49h-16.86c-.02.29-.04.59-.05.88,2.1.3,4.24.45,6.29.96,1.88.47,3.66,1.36,5.5,2,1.55.53,3.1,1.11,4.7,1.42,2.65.51,5.35.82,7.98,1.71-11.96.36-23.94-.57-35.65,2.21-.01.4-.02.79-.04,1.19,8.15.56,16.31,1.11,24.72,1.69-11.66,1.27-23.05,2.52-34.43,3.76.01.18.03.37.04.55,7.87,1.01,15.74,2.02,23.61,3.03l.09.79c-3.99.62-7.97,1.27-11.96,1.86-7.71,1.14-15.48,1.96-23.1,3.51-3.54.72-6.77,2.9-10.17,4.33-1.01.42-2.14.54-3.21.83-2.99.82-5.96,1.69-8.96,2.47-5.53,1.44-11.07,2.85-16.62,4.25-1.12.28-2.26.48-3.38.71-.03.29-.05.58-.08.87.84.3,1.67.86,2.51.86,4.12.02,8.14.79,12.4-.18,4.62-1.04,9.58-1.07,14.35-.78,5.96.36,11.28,2.67,15.93,6.67,1.85,1.59,4.5,2.26,6.79,3.34,1.41.66,2.82,1.31,4.23,1.96-.01.31-.03.62-.04.93h-10.25l-.04,1.1c1.46.41,3,.67,4.37,1.29.95.43,3.51-.37,2.35,2.42-.05.12,2.44,1.31,4.54,2.41-3.66-.32-6.59-.58-9.52-.84-.05.16-.1.32-.14.48,3.35,1.28,6.7,2.56,10.05,3.84.02.19.04.37.06.56-1.3.19-2.61.38-3.68.53,1.21,1.85,2.5,3.81,4.16,6.35-1.97.29-2.89.42-3.81.56.03.08.03.19.08.24.08.07.21.08.3.14.19.15.37.32.52.45-1.88.39-3.61.76-5.52,1.16,2.65,2.36,4.86,4.33,7.39,6.59-2.22,1.32-3.89,2.31-5.22,3.1.88,1.8,1.69,3.46,2.49,5.12-1.97.21-3.93.41-5.9.64-.39.04-.76.17-1.16.74,2.33.3,4.65.61,7.36.96-.74,1.39-1.3,2.43-1.84,3.44-1.28-.28-2.32-.51-3.23-.7.63,1.72,1.22,3.37,1.98,5.45-3.67-.61-6.64-1.11-9.61-1.6-.11.49-.22.97-.34,1.46,2.53.52,5.06,1.04,7.59,1.56.04.12.07.24.11.36-1.54.22-3.07.44-5.09.74.91.49,1.48.8,2.68,1.44-2.85,1.5-4.26,4.4-7.82,4.11-3.77-.31-7.57-.36-11.36-.46-.81-.02-1.63.26-2.42,1.05,3.64.42,7.28.85,10.93,1.27,0,.3,0,.6,0,.9-4.8,1.41-9.66,2.31-14.76,1.58-1.87-.27-3.86-.68-5.64-.31-1.86.39-3.84,1.31-5.25,2.58-7.24,6.54-16.55,8.13-26.06,11.22,3.47.8,6.32,1.48,9.19,2.11,7.18,1.57,14.47,2.75,21.5,4.82,3.88,1.15,7.28,3.87,10.99,5.69,1.47.72,3.29.7,4.79,1.38,1.18.54,2.11,1.63,2.94,2.92,7.59,2.32,15.67,3.34,22.85,7.7-.9.16-1.8.31-2.89.5.57.82,1.1,1.57,1.76,2.53-1.82.18-3.4.34-4.97.5,4.03,1.15,5.96,5.92,10.48,5.8.37,0,.58,1.78,1.22,2.21,1.51,1.03,3.24,1.74,4.89,2.58-3.83,4.4-8.87,1.51-13.93,1.64,2.23.55,4,.98,5.77,1.41,0,.15-.01.29-.02.44-2.5-.19-5-.37-7.5-.56-.03.22-.06.45-.09.67Z"/>
    <path class="cls-1" d="M297.83,348.89c-2.6,35.96-12.13,69.81-37.76,97.97,15.83,20.15,23.68,42.74,19.31,68.49-2.45,14.41-9.03,25.55-18.52,32.54,27.26-33.86,20.61-66.66-1.25-98.34-8.48,2.24-15.83,5.56-23.28,5.83-10.22.37-19.1-5.06-25.46-12.85-14.85-18.2-29.46-36.7-37.75-59.11-6.92-18.7-10.02-37.91-.05-56.19,5.39-9.88,13.76-18.13,21.32-27.79-12.68-16.39-22.86-35.75-29.13-57.1-.32-1.09-1.19-2.15-2.06-2.94-27.36-24.99-29.65-70.04-13.49-102.19,11.18-22.23,22.25-32.5,52.23-47.66-3.54-11.34-7.99-22.45-10.41-33.98C183.29,16.29,219.21-3.99,246.22.65c34.61,5.95,56,28.52,70.21,58.76,12.68,26.98,15.33,55.71,9.76,84.74-2.41,12.57,2.18,24.18,1.55,36.33-.08,1.64,2.43,3.4,3.67,5.14,6.5,9.11,12.9,18.31,19.52,27.33,2.21,3.01,4.57,6.25,7.59,8.29,31.06,20.9,47.56,50.28,49.16,87.31,1.05,24.21-15.68,37.54-39.77,33.4-11.07-1.9-21.93-5-32.99-6.95-3.37-.59-7.4.16-10.62,1.51-8.72,3.66-17.18,7.97-26.49,12.38ZM322.43,147.06c.52-.12,1.03-.24,1.55-.35.71-6.79,1.73-13.57,2.08-20.38,1.75-33.65-5.62-64.86-27.33-91.28C282.09,14.8,261.53,1,233.67,2.76c-24.75,1.56-42.79,20.92-40.46,45.52,1.11,11.65,6.11,22.94,9.37,34.39,1.37,4.8,3.79,6.01,9.16,4.78,42.77-9.81,86.17,10.09,105.39,47.92,1.94,3.81,3.53,7.8,5.29,11.71ZM207.99,100.17c-16.05,8.13-26.75,20.32-33.96,35.51-15.36,32.37-16.39,66.03-7.84,100.32.49,1.95,1.78,4.06,3.33,5.32,13.09,10.67,39.17,11.65,52.2,4.31-2.28-27.15,2.63-51.75,25.52-70-13.06-25.11-26.01-50.01-39.25-75.46ZM213.16,319.45c-14.35,16.42-20.83,35.19-22.98,55.97-.97,9.36,2.05,15.6,9.67,21,14.58,10.32,28.73,21.26,42.86,32.2,4.35,3.37,8.06,7.56,13.48,12.71,5.1-7.69,10.77-14.02,13.92-21.42,10.42-24.43,3.74-48.02-5.36-71.2-.45-1.16-1.94-2.4-3.17-2.7-18.3-4.43-33.75-14.09-48.43-26.55ZM207.36,91.29c.36,5.54,3.06,5.26,6.99,3.74,11.24-4.35,22.87-5.48,34.57-2.33,18.84,5.07,30.92,17.9,39.17,34.88-8.7-12.47-18.02-24.41-32.74-30.32-15.04-6.03-29.89-4.9-45.26,2.02,13.26,25.47,26.18,50.27,39.13,75.13,22.67-12.12,44.56-10.73,67.78-.27,1.48-8.33,5.19-16.18,3.68-22.85-10.36-45.66-67.98-75.99-113.31-60.01ZM359.35,263.4c-.81-7.77-1.11-15.64-2.52-23.3-4.05-21.94-7.61-25-29.82-27.35-.24-.03-.55-.19-.72-.1-1.84,1.01-4.66,1.62-5.32,3.16-7.05,16.35-18.24,29.43-31.24,41.27-1.69,1.54-2.98,4.92-2.59,7.13,2.96,17.08,6.57,34.04,9.51,51.13.76,4.43,2.22,6.9,6.73,7.95,6.18,1.43,12.38,3.07,18.28,5.37,5.17,2.01,8.58.76,12.19-3.14,16.24-17.55,23.52-38.58,25.5-62.11ZM354.79,222.06c6.45,19.81,8,38.91,4.21,58.23-3.82,19.53-12.68,36.59-26.94,51.69,15.24,3.39,30.08,6.86,45.07,7.74,16.11.94,26.37-8.87,27.94-24.95,2.58-26.42-8.11-48.73-23.1-69.37-6.91-9.52-15.57-17.26-27.19-23.34ZM206.4,97.89c-.65-6.66-4-5.67-8.25-3.99-39.98,15.78-64.48,64.06-54.12,106.77,3.16,13.01,8.68,24.68,17.24,33.48-.66-16.9-2.9-34.44-1.68-51.73,2.45-34.85,14.37-65.36,46.8-84.53ZM272.43,222.92c7.83-3.53,17.35-4.96,21.86-10.48,8.6-10.53,14.35-23.39,21.24-35.21-20.08-12.49-49.4-12.09-64.64-.07,7.03,14.93,14.07,29.89,21.54,45.76ZM168.22,243.42c6.57,21.62,15.93,39.52,29.26,55.89,10.22-6.9,19.99-13.35,29.55-20.12,1.35-.96,2.61-3.71,2.23-5.18-2.15-8.21-4.83-16.28-7.44-24.75-18.05,4.98-35.54,5.57-53.6-5.83ZM284.86,261.53c-15.96,11.71-30.05,22.05-44.27,32.48,2.67,5.31,4.75,10,7.35,14.37.96,1.61,3,3.23,4.79,3.58,13.78,2.72,27.62,5.13,43.21,7.96-3.67-19.34-7.24-38.15-11.09-58.4ZM270.64,224.48c-7.58-16.06-14.64-31.02-21.73-46.05-18.85,11.31-29.66,41.98-23.58,68.12,14.9-7.26,29.5-14.37,45.32-22.07ZM191.28,392.4c2.18,21.56,9.18,38.53,28.27,48.19,10.44,5.29,21.06,7.16,32.48.74-17.18-20.02-39.75-32.26-60.74-48.93ZM267.38,348.02c11.77,33.59,18.99,66.43-12.54,96.38,18.07-6.85,42.72-62.45,39.43-96.38h-26.88ZM270.37,226.76c-9.41,4.87-18.55,9.56-27.65,14.31-5.83,3.04-15.07,5.07-16.52,9.57-1.82,5.66,2.71,13.4,4.58,20.21.36,1.31,1.1,2.51,2.32,5.24,12.26-10.98,23.64-21.65,35.57-31.67,6.56-5.51,7.13-10.78,1.7-17.66ZM253.3,313.8c-.52.55-1.03,1.09-1.55,1.64,3.06,6.28,6.94,12.3,9,18.9,2.93,9.38,8.78,11.79,17.97,11.86,17.47.13,19.86-2.06,16.56-19.31-.33-1.73-2.07-4.17-3.57-4.54-12.74-3.08-25.59-5.75-38.4-8.54ZM192.93,415.58c-1.71-9.72-2.98-17.57-4.55-25.36-.31-1.52-1.72-2.87-2.78-4.17-20-24.61-14.5-50.94,13.72-65.54,3.11-1.61,6.28-3.12,9.77-4.85-4.38-4.6-8.21-8.63-12.09-12.71-12.74,9.68-22.86,20.77-26.05,36.53-5.76,28.43,6.38,51.81,21.99,76.09ZM276.48,241.18c-13.66,11.62-27.06,22.89-40.24,34.41-1.21,1.06-1.89,3.91-1.4,5.5,1.08,3.56,3.05,6.84,4.83,10.6,10.26-7.43,19.76-14.22,29.16-21.16q15.62-11.52,7.65-29.35ZM319.67,211.69c-11.9,1.83-23.6.14-30.39,12.27-2.23,3.99-6.01,7.1-8.67,10.9-1.08,1.54-1.87,4.06-1.4,5.75,1.56,5.55,3.75,10.92,5.97,17.11,15-12.83,27.48-26.46,34.48-46.02ZM210.34,318.95c-33.97,9.74-45.09,42.69-22.48,65.04.02-24.19,6.7-45.51,22.48-65.04ZM263.14,343.85c-4.94-9.94-8.95-18.27-13.27-26.43-.76-1.44-2.86-3.13-4.31-3.1-10,.21-19.98.85-29.98,1.35-.06.85-.12,1.69-.18,2.54,13.41,11.73,28.27,20.84,47.74,25.64ZM198.74,301.28c4.82,5.07,9.08,9.55,13.59,14.3,8.7-7.83,16.78-15.1,25.09-22.58-2-4.45-3.96-8.83-6.15-13.7-10.88,7.35-21.26,14.36-32.53,21.98ZM317.31,178.02c-6.03,11.23-11.98,22.3-18,33.51,22.38-.65,22.03-.71,25.55-20.95,1.26-7.24-1.77-10.27-7.54-12.56ZM348.6,215.48c-2.98-10.97-13.65-25.39-20.87-28.46-1.35,7.51-2.71,15.05-4.01,22.22,8.58,2.15,16.72,4.19,24.88,6.24ZM297.93,346.12c10.11-4.51,18.64-8.32,27.17-12.12-.2-.74-.39-1.49-.59-2.23-8.73-2.55-17.45-5.11-26.58-7.78v22.14ZM238.48,295.14c-6.93,6.21-12.82,11.49-19.7,17.65,10.11-.54,18.48-.98,27.82-1.48-2.71-5.41-5.16-10.28-8.12-16.17ZM212.82,439.56c11.72,17.63,36.45,16.55,43.83,3.57-16.17,6.46-30.52,5.81-43.83-3.57ZM277.29,235.39c5.03-6.31,8.97-11.25,12.91-16.19-.37-.39-.73-.79-1.1-1.18-5.22,2.38-10.43,4.75-15.99,7.29,1.42,3.43,2.51,6.06,4.17,10.08ZM325.84,180.33c-.82-7.04-1.44-12.34-2.06-17.63-.47-.02-.95-.05-1.42-.07-1.44,4.01-2.89,8.02-4.43,12.32,2.25,1.53,4.19,2.85,7.91,5.39Z"/>
  </g>
</svg>