<?xml version="1.0" encoding="UTF-8"?>
<svg id="Layer_1" data-name="Layer 1" xmlns="http://www.w3.org/2000/svg" viewBox="0 0 612 792">
  <defs>
    <style>
      .cls-1 {
        fill: #fff;
      }
    </style>
  </defs>
  <path class="cls-1" d="M284.17,405.2c-41.64-31.76-83.28-63.51-125.49-95.7,3.31-4,6.5-7.86,9.97-12.05,38.97,35.9,77.55,71.45,116.13,106.99-.2.25-.4.5-.6.75Z"/>
  <path class="cls-1" d="M369.28,404.39c38.52-35.49,77.05-70.98,116.01-106.88,3.37,3.98,6.54,7.71,10.11,11.92-42.03,32.06-83.78,63.9-125.52,95.74-.2-.26-.4-.52-.6-.78Z"/>
  <path class="cls-1" d="M284.77,476.57c-38.52,35.49-77.03,70.98-116.07,106.95-3.41-4.06-6.64-7.91-10.06-11.97,42.11-32.12,83.82-63.93,125.52-95.74l.61.76Z"/>
  <path class="cls-1" d="M361.97,398.13c31.88-41.79,63.77-83.58,96.06-125.91,4.16,3.43,8.06,6.65,12.06,9.95-36.03,39.09-71.72,77.81-107.41,116.54-.24-.19-.47-.38-.71-.58Z"/>
  <path class="cls-1" d="M227.1,629.09c-4.84-2.84-8.97-5.25-13.46-7.89,28.36-44.23,56.5-88.14,84.65-132.04.3.17.61.33.91.5-23.96,46.34-47.92,92.67-72.1,139.43Z"/>
  <path class="cls-1" d="M213.59,259.72c4.65-2.67,8.81-5.06,13.53-7.76,24.08,46.56,48.06,92.93,72.05,139.3-.3.17-.6.35-.9.52-28.09-43.81-56.19-87.63-84.67-132.05Z"/>
  <path class="cls-1" d="M354.81,391.32c23.91-46.25,47.82-92.5,72.02-139.29,4.49,2.53,8.75,4.92,13.6,7.65-28.36,44.24-56.54,88.2-84.71,132.15-.3-.17-.6-.34-.9-.5Z"/>
  <path class="cls-1" d="M470.06,598.78c-3.88,3.28-7.65,6.47-11.95,10.11-31.01-40.64-61.73-80.91-92.45-121.17.38-.31.75-.63,1.13-.94,34.32,37.23,68.65,74.45,103.26,112Z"/>
  <path class="cls-1" d="M287.25,394.27c-34.28-37.18-68.55-74.36-103.27-112.02,3.88-3.29,7.7-6.53,11.93-10.11,31.05,40.7,61.73,80.91,92.42,121.13l-1.07,1.01Z"/>
  <path class="cls-1" d="M440.38,621.24c-4.65,2.69-8.8,5.1-13.5,7.82-24.1-46.6-48.08-92.97-72.06-139.34.3-.17.6-.35.9-.52,28.1,43.84,56.21,87.67,84.65,132.03Z"/>
  <path class="cls-1" d="M275.03,422.05c-50.28-15.7-100.56-31.4-151.09-47.17,1.86-5.01,3.57-9.62,5.41-14.59,48.94,20.43,97.46,40.68,145.98,60.94-.1.27-.2.55-.29.82Z"/>
  <path class="cls-1" d="M524.67,360.27c1.87,5.07,3.53,9.56,5.39,14.6-50.51,15.77-100.88,31.5-151.25,47.22-.09-.27-.19-.54-.28-.8,48.49-20.25,96.98-40.49,146.14-61.02Z"/>
  <path class="cls-1" d="M288.3,487.76c-30.61,40.12-61.21,80.24-92.33,121.02-4.03-3.31-7.92-6.51-12.09-9.93,34.66-37.6,69.01-74.86,103.35-112.11.35.34.71.68,1.06,1.02Z"/>
  <path class="cls-1" d="M275.19,411.34c-45.39-23.46-90.77-46.91-136.77-70.69,2.63-4.56,5.07-8.79,7.8-13.52,43.46,27.85,86.61,55.51,129.77,83.16-.27.35-.53.7-.8,1.04Z"/>
  <path class="cls-1" d="M129.35,520.72c-1.87-5.04-3.54-9.53-5.41-14.59,50.44-15.75,100.74-31.46,151.03-47.16.1.27.21.55.31.82-48.41,20.21-96.83,40.43-145.93,60.93Z"/>
  <path class="cls-1" d="M530.09,506.13c-1.93,5.16-3.61,9.63-5.46,14.57-48.96-20.44-97.49-40.7-146.03-60.96.09-.27.19-.54.28-.81,50.27,15.69,100.54,31.39,151.21,47.2Z"/>
  <path class="cls-1" d="M495.4,571.56c-3.4,4.05-6.58,7.83-10.06,11.98-37.75-34.79-75.17-69.26-112.59-103.74l.88-1.08c40.47,30.86,80.95,61.72,121.77,92.85Z"/>
  <path class="cls-1" d="M307.18,387.55c-20.08-48.08-40.16-96.17-60.43-144.71,4.99-1.82,9.59-3.5,14.62-5.34,15.68,50.2,31.2,99.9,46.72,149.6-.3.15-.6.3-.91.45Z"/>
  <path class="cls-1" d="M146.24,553.86c-2.63-4.54-5.1-8.81-7.81-13.51,45.86-23.7,91.34-47.22,136.82-70.73.22.37.43.75.65,1.12-43.09,27.62-86.18,55.24-129.66,83.11Z"/>
  <path class="cls-1" d="M515.57,540.35c-2.69,4.66-5.16,8.92-7.81,13.52-43.48-27.87-86.58-55.5-129.69-83.13.21-.37.43-.75.64-1.12,45.48,23.51,90.96,47.01,136.86,70.74Z"/>
  <path class="cls-1" d="M507.74,327.14c2.66,4.57,5.14,8.82,7.85,13.49-45.93,23.74-91.41,47.25-136.9,70.76-.21-.37-.42-.75-.64-1.12,43.12-27.64,86.24-55.29,129.68-83.13Z"/>
  <path class="cls-1" d="M346.8,493.41c20.08,48.09,40.16,96.18,60.45,144.75-4.97,1.8-9.57,3.47-14.63,5.3-15.66-50.16-31.18-99.86-46.7-149.56.3-.17.59-.33.89-.5Z"/>
  <path class="cls-1" d="M345.89,387.17c15.52-49.71,31.04-99.41,46.72-149.64,4.99,1.81,9.6,3.48,14.63,5.3-20.26,48.52-40.33,96.6-60.4,144.68-.32-.11-.63-.23-.95-.34Z"/>
  <path class="cls-1" d="M282.34,231.93c5.31-.9,10.12-1.72,15.28-2.6,6.85,53.13,13.62,105.67,20.4,158.2l-.7.12c-11.61-51.71-23.23-103.42-34.98-155.72Z"/>
  <path class="cls-1" d="M326.44,382.53c-2.38-51.5-4.75-103.01-7.15-154.91h15.42c-2.39,51.83-4.77,103.4-7.14,154.97-.38-.02-.75-.04-1.13-.06Z"/>
  <path class="cls-1" d="M261.4,643.47c-5.01-1.8-9.5-3.41-14.65-5.26,20.23-48.46,40.35-96.64,60.46-144.82l.93.32c-15.5,49.67-31.01,99.33-46.75,149.76Z"/>
  <path class="cls-1" d="M118.38,395.84c51.43,11.55,102.51,23.02,153.58,34.49-.05.3-.1.6-.15.9-51.82-6.68-103.64-13.36-156.07-20.11.92-5.31,1.75-10.12,2.64-15.28Z"/>
  <path class="cls-1" d="M334.71,653.41h-15.42c2.39-51.84,4.77-103.4,7.15-154.96.37,0,.74,0,1.1,0,2.38,51.54,4.76,103.07,7.16,154.97Z"/>
  <path class="cls-1" d="M535.58,395.84c.9,5.01,1.75,9.7,2.75,15.24-52.13,6.73-103.98,13.42-155.82,20.11-.06-.31-.12-.62-.18-.93,50.95-11.45,101.91-22.89,153.24-34.43Z"/>
  <path class="cls-1" d="M538.29,469.88c-.93,5.37-1.74,10.05-2.65,15.28-51.35-11.53-102.39-22.99-153.44-34.45.05-.3.09-.6.14-.91,51.72,6.66,103.44,13.31,155.96,20.07Z"/>
  <path class="cls-1" d="M539.91,432.77v15.46c-53.84-2.5-107.45-4.99-161.06-7.48,0-.16,0-.33,0-.49,53.51-2.49,107.03-4.98,161.06-7.49Z"/>
  <path class="cls-1" d="M118.41,485.15c-.91-5.04-1.75-9.73-2.74-15.25,52.28-6.74,104.22-13.44,156.17-20.13.05.3.1.6.15.9-51.08,11.47-102.16,22.94-153.57,34.49Z"/>
  <path class="cls-1" d="M297.64,651.7c-5.16-.88-9.86-1.68-15.29-2.6,11.37-50.65,22.65-100.87,33.93-151.1.37.06.74.11,1.11.17-6.55,50.9-13.09,101.81-19.75,153.53Z"/>
  <path class="cls-1" d="M275.17,440.75c-53.53,2.49-107.05,4.97-160.94,7.48v-15.44c53.71,2.49,107.33,4.98,160.94,7.47,0,.17,0,.33,0,.5Z"/>
  <path class="cls-1" d="M336.61,382.89c6.55-50.9,13.1-101.8,19.75-153.51,4.94.79,9.74,1.57,15.31,2.46-11.39,50.73-22.68,100.98-33.96,151.22-.37-.06-.73-.12-1.1-.18Z"/>
  <path class="cls-1" d="M371.66,649.07c-5.32.9-10.13,1.72-15.29,2.59-6.63-51.5-13.18-102.39-19.74-153.28.37-.07.75-.14,1.12-.21,11.26,50.1,22.51,100.19,33.91,150.89Z"/>
</svg>