<?xml version="1.0" encoding="UTF-8"?>
<svg id="Layer_2" data-name="Layer 2" xmlns="http://www.w3.org/2000/svg" viewBox="0 0 370.14 93.88">
  <defs>
    <style>
      .cls-1 {
        fill: #fff;
      }
    </style>
  </defs>
  <g id="Layer_1-2" data-name="Layer 1">
    <path class="cls-1" d="M333.82,9.88c-4.43,2.97-9.81-.14-12.47,5.56,2.39.73,4.57,1.54,6.81,2.03,2.52.55,5.15.64,7.66,1.25,2.34.56,5.28.37,5.51,4.21.06.95,2.23,1.76,3.37,2.59-2,.5-4.13,1.04-7.65,1.92,2.18,1.36,3.39,2.1,5.28,3.28-1.97.75-2.89,1.11-3.82,1.47-.03.35-.06.7-.08,1.05,5.33.18,10.67.37,16,.55.03.58.07,1.17.1,1.75-1.94.41-3.87.89-5.83,1.2-1.7.27-3.47.16-5.13.55-2.19.52-4.29,1.37-6.43,2.07,2.17,1.3,4.2,3.18,6.55,3.77,5.7,1.42,11.57,2.11,17.32,3.38,1.46.32,2.69,1.69,4.91,3.18-4.25,1.1-7.41,1.93-10.57,2.75.04.38.08.76.12,1.14,3.72.13,7.44.26,10.82.37-.76,2.78-1.4,5.1-1.9,6.94,2.27,1.6,4.01,2.84,5.76,4.08-.25.41-.49.81-.74,1.22-8.3.49-16.59.98-24.89,1.47l.05,1.53c6.26.22,12.53.43,18.79.65l.07,1.22c-6.09.81-12.18,1.63-18.27,2.44.02.32.04.63.05.95,5.87-.07,11.75-.13,17.62-.2-10.57,3.49-22,1.65-32.48,5.63,8.21,2.01,16.74-2.06,24.73,2.61-5.64.62-11.27,1.33-16.92,1.84-17.88,1.62-35.75,3.5-53.67,4.62-13.06.82-26.19.32-39.27.89-16.8.74-33.61,1.55-50.34,3.08-20.18,1.84-40.22.84-60.31-1.03-12.44-1.16-24.94-2.11-37.43-2.32-17.25-.28-34.54.82-51.77.2-11.71-.42-23.33-3.06-35.04-4.15-5.34-.5-7.34-4.01-7.98-7.91C1.02,69.54-.37,61.17.09,52.99c.66-11.87,2.95-23.64,4.5-35.46.89-6.78,2.44-9.07,9.32-10.41,8.3-1.62,16.82-2.12,25.12-3.77C66.59-2.14,94.31.61,122,1.32c22.01.57,44.08,2.62,66.02,1.66,35.34-1.55,70.48,1.46,105.72,2.1,6.04.11,12.08-.29,18.12-.19,1.48.03,2.91,1.21,4.42,1.7,2.53.83,5.06,1.75,7.66,2.24,2.87.54,5.82.64,9.89,1.05Z"/>
  </g>
</svg>