<?xml version="1.0" encoding="UTF-8"?>
<svg id="Layer_2" data-name="Layer 2" xmlns="http://www.w3.org/2000/svg" viewBox="0 0 292.16 120.23">
  <defs>
    <style>
      .cls-1 {
        fill: #0d547b;
      }
    </style>
  </defs>
  <g id="Layer_1-2" data-name="Layer 1">
    <path class="cls-1" d="M276.31,64.01c1.9.53,3.84,1.62,5.68,1.48,3.56-.27,3.84,1.2,2.83,4.1,1.47-.1,2.86-.19,3.67-.25,1.36,1.88,2.39,3.3,3.66,5.06-1.25.11-2.1.19-2.94.27,1.76,3.62-1.88,2.97-3.03,3.17-6.96,1.23-14,2.01-21,3.06-3.53.53-7.01,1.33-11.31,2.17,4.75,3.74,9.07,3.12,13.52,2.27,1.29-.25,2.93-.07,4.07.55,3.9,2.1,6.33,6.78,11.62,6.53,1.61-.08,3.23.13,4.84.21-3.9,1.46-6.56,3.65-7.48,7.72-.1.43-1.17.79-1.85.93-7.44,1.63-14.83,3.69-22.35,4.69-9.17,1.22-18.62.75-27.64,2.54-5.29,1.05-10.28.29-15.39.62-3.07.2-6.16.25-9.77.39,3.15,3.3,8.43,1.37,10.65,6.19-7.29,1.7-13.86,4.55-20.42,4.52-16.5-.09-33.02-1.17-49.47-2.51-6.69-.54-13.21-3.85-19.85-4.01-10.1-.24-18.81-4.99-28.34-6.86-.17-.03-.27-.48-.55-1.02.67-.83,1.42-1.75,2.69-3.32-11.31-2.64-22.2-5.17-33.84-7.88,1.68-1.1,2.57-1.57,3.32-2.21.71-.61,1.28-1.38,1.9-2.07-2.78-2.8-2.74-7,.49-8.79,2.89-1.6,6.41-2.07,10.84-3.38-6.19-3.93-7.11-8.88-5.32-14.78.25-.81-1.5-2.98-2.69-3.36-7.81-2.49-15.71-4.73-23.61-6.93-4.74-1.32-9.54-2.45-14.32-3.61-7.14-1.73-14.32-3.27-21.41-5.18-2.5-.67-5.95-.58-6.18-4.69-.03-.59-1.52-1.18-2.41-1.63-1.62-.81-3.29-1.5-4.95-2.24.08-.35.16-.69.24-1.04,3.33.41,6.69.66,9.98,1.27,9.18,1.69,18.32,3.62,27.5,5.27,4.07.73,8.2,1.38,12.32,1.49,7.56.19,14.92-2.9,22.72-1.02,3.03.73,7.04.81,8.87-3.03-1.87-4.99-6.18-4.95-10.51-4.99,2.06,1.34,4.11,2.68,6.17,4.02-.16.26-.31.53-.47.79-3.2-1.62-6.4-3.24-9.8-4.96,1.58-3.49,2.92-6.45,4.26-9.41.22.33.44.67.66,1,3.49-1.42,6.97-2.83,10.46-4.25,1.57-.63,3.54-.7,5.49-.61,5.83.28,11.67.61,17.5.93,5.65.31,11.29.65,16.94.87.7.03,1.42-.61,2.13-.94-.47-.73-.84-1.55-1.43-2.15-.42-.43-1.14-.58-2.35-1.15,1.71-.6,2.7-.94,4.78-1.67-8-1.09-14.86-2.03-21.72-2.97.05-.52.1-1.04.14-1.55,3.09-.05,6.18,0,9.26-.15,12.72-.61,25.48-2.18,38.15-1.59,8,.37,14.99-1.89,22.26-3.79,10.98-2.87,21.76-7.12,33.35-5.91,2.88.3,7.91-.46,7.75,5.28,0,.21.74.36.92.66.54.91.97,1.88,1.44,2.83.05-.13.1-.26.15-.39,2.49,2.85,4.98,5.71,7.47,8.56-.27.26-.53.52-.8.79-1.28-.14-2.57-.28-3.85-.42.31,1.14.87,1.76,1.47,1.8,1.98.11,3.99-.22,5.95,0,9.73,1.15,18.64-1.91,27.62-4.95,5.99-2.03,12.11-3.69,19.21-5.83-.4,5.25-.7,9.19-.97,12.61-1.8.15-5.3-.31-5.73.63-1.54,3.38-3.34,7.37,1.82,10.74-3.1,1.06-5.33,2.08-7.67,2.56-5.95,1.22-11.96,2.11-17.92,3.31-1.47.29-2.81,1.22-4.2,1.86.27.65.53,1.3.8,1.95,2.53-.83,5.01-1.99,7.6-2.41,5.48-.88,10.97-2.55,16.56.12,1.31.63,3.32-.22,6-.49-2.88,2.94-5.61,5.73-8.34,8.51.14.35.27.7.41,1.05,3.73-1.01,7.45-2.02,11.39-3.08-1.58,1.73-3.06,3.37-4.58,5.04q5.62,3.8,12.56,2.13c-1.11,1.38-2.23,2.76-3.06,3.79,1.51.56,3.18,1.18,6.04,2.23-3.75,1.6-6.1,2.59-8.45,3.59-.05.44-.1.88-.15,1.32ZM234.3,42.44c-.72,0-1.43,1.22-3.06,2.71,11.21-.62,21.27-1.17,31.33-1.72.04-.35.08-.71.12-1.06-9.46,0-18.92-.05-28.38.07Z"/>
  </g>
</svg>