<?xml version="1.0" encoding="UTF-8"?>
<svg id="Layer_2" data-name="Layer 2" xmlns="http://www.w3.org/2000/svg" viewBox="0 0 482.83 113.61">
  <defs>
    <style>
      .cls-1 {
        fill: #0d547b;
      }
    </style>
  </defs>
  <g id="Layer_1-2" data-name="Layer 1">
    <g>
      <path class="cls-1" d="M348.05,4.07h-17.34c12.6-4.1,93.64.73,124.05,6.98-6.11-.34-12.22-.68-18.33-1.02-.07.65-.14,1.3-.21,1.94,7.93.98,15.87,1.97,23.82,2.95.08,1.8.15,3.3.22,4.94,1.74.2,3.51.41,5.27.62-.03.28-.05.56-.08.83-3.95.22-7.89.44-11.84.66-.06.53-.13,1.06-.19,1.59,9.8,1.13,19.59,2.26,29.39,3.39-.09.69-.18,1.37-.27,2.06-1.85,0-3.71-.14-5.54.03-2.71.25-5.44.56-8.1,1.11-4.33.89-8.57,2.53-12.93,2.89-12.54,1.04-25.12,1.59-37.68,2.37-.95.06-1.88.43-2.88,1.99,3.14.37,6.27.74,9.41,1.11.11.51.21,1.02.32,1.53-5.7.93-11.41,1.86-17.11,2.79.03.27.06.54.08.81,7.72-.58,15.45-1.68,23.16-1.59,7.73.09,15.44,1.38,24.99,2.32-2.86,1.73-3.99,2.42-6.08,3.68,5.06.72,9.15,1.3,11.99,1.71v8.61c-3.02.85-6.56,1.84-10.1,2.82.07.35.15.7.22,1.05,7.35-.33,14.71-.66,22.06-.99.06.76.12,1.52.18,2.28-3.74.78-7.49,1.56-11.23,2.35.02.31.04.62.07.93,1.67.19,3.34.39,5.61.65-3.19,2.02-5.8,3.66-8.44,5.33,3.98,2.76,7.48,5.2,12.65,8.79-1.87,1.46-4.14,3.23-6.47,5.05.62.82,1.36,1.78,2.66,3.49-3.31,1.08-6.16,2.01-9.74,3.17,1.37.79,2.26,1.3,4.36,2.51-5.61,1.93-10.35,4.39-15.36,5.16-26.33,4.01-52.66,8.14-79.12,11.08-13.02,1.45-26.72,2.54-39.41.11-27.28-5.22-54.42-.5-81.58-1.54-39.26-1.51-78.55-1.99-117.83-2.96-1.34-.03-2.67-.54-4-.82-.04-.79-.08-1.59-.13-2.38,9.73-1.23,19.47-2.47,29.2-3.7.06-.34.12-.69.18-1.03-2.26-.35-4.5-.95-6.77-1.02-38.62-1.34-77.24-2.56-115.85-4.03-2.32-.09-4.58-2.09-8.06-3.78,16.89-1.28,32.51-2.46,48.14-3.65,0-.37.02-.74.03-1.11-.71-.13-1.43-.45-2.12-.38-16.79,1.72-32.6-3.93-48.81-6.54-4.92-.79-9.69-2.56-13.88-3.71,3.27-1.26,7.53-2.89,11.79-4.53-.02-.58-.04-1.16-.06-1.74-6.46-1.67-12.92-3.34-20.4-5.28,7.74-.82,14.57-1.54,21.4-2.27.05-.57.1-1.14.15-1.71-4.49-.99-8.99-1.98-13.53-2.99,11.99-1.14,23.95-2.27,35.91-3.4-.03-.72-.07-1.45-.1-2.17h-13.06c-.04-.49-.08-.98-.11-1.46,8.37-1.07,16.73-2.14,25.1-3.21.05-.55.09-1.1.14-1.64-2.66-.25-5.32-.5-9.03-.85.91-2.32,1.71-4.38,2.99-7.66H4.69c-.01-.65-.03-1.3-.04-1.95,3.08-.27,6.16-.53,9.24-.8.08-.32.16-.63.23-.95-1.99-.46-3.97-.93-5.96-1.39-.16-.68-.32-1.36-.47-2.05,6.13-1.59,12.26-3.17,19.71-5.1-2.47-1.13-3.65-1.67-4.89-2.24.35-.22.67-.6.94-.57,8.36,1.14,13.83-6.5,21.65-7.15,2.1-.18,4.08-1.94,6.17-2.06,26.85-1.54,53.7-3.22,80.58-4.22,14.71-.54,29.46.34,44.19.23,55.51-.4,111.01-.94,166.52-1.47,1.82-.02,3.64-.49,5.46-.74.01-.71.02-1.42.04-2.13ZM387.1,68.9c.02-.5.05-1,.07-1.5h-19.9c-.02.5-.03,1-.05,1.5h19.87Z"/>
      <path class="cls-1" d="M77.95,103.02c-3.05.31-5.76.58-8.47.85-.04.49-.08.97-.12,1.46,9.8.8,19.59,1.61,29.77,2.44-8.07,0-15.72-.03-23.37,0-10.44.04-21.04-1-31.26.53-9.88,1.48-17.51-5.39-26.91-4.75-5.39.37-10.89-.69-16.3-1.97,25.44.53,50.93-3.71,76.63,1.43Z"/>
      <path class="cls-1" d="M125.08,2.11c23.99-4.26,48.03-.88,72.05,0h-72.05Z"/>
      <path class="cls-1" d="M120.74,101.39c-10.19,4.27-12.59,4.45-28.85,1.35,9.08-.42,18.15-.85,28.85-1.35Z"/>
      <path class="cls-1" d="M41.45,4.94c12.2-1.14,24.4-2.28,36.6-3.42.06.63.11,1.26.17,1.88-12.21,1.08-24.41,2.16-36.62,3.25-.05-.57-.1-1.14-.16-1.71Z"/>
    </g>
  </g>
</svg>